<?xml version="1.0" encoding="UTF-8"?>
<svg xmlns="http://www.w3.org/2000/svg" xmlns:xlink="http://www.w3.org/1999/xlink" id="svg" version="1.1" width="400" height="400" viewBox="0, 0, 400,400">
    <g id="svgg">
        <path id="path0" d="M100.000 24.429 C 100.000 45.067,100.089 48.946,100.571 49.429 C 101.054 49.911,104.933 50.000,125.571 50.000 L 150.000 50.000 150.000 25.000 L 150.000 0.000 125.000 0.000 L 100.000 0.000 100.000 24.429 M0.000 100.000 L 0.000 150.000 49.520 150.000 C 87.502 150.000,99.152 149.888,99.520 149.520 C 100.293 148.747,100.204 101.347,99.429 100.571 C 98.946 100.089,95.131 100.000,74.909 100.000 C 56.815 100.000,50.843 99.883,50.480 99.520 C 50.117 99.157,50.000 93.185,50.000 75.091 C 50.000 54.869,49.911 51.054,49.429 50.571 C 48.946 50.089,45.067 50.000,24.429 50.000 L 0.000 50.000 0.000 100.000 M150.480 50.480 C 149.702 51.258,149.792 148.649,150.571 149.429 C 151.054 149.911,154.933 150.000,175.571 150.000 L 200.000 150.000 200.000 100.571 C 200.000 58.267,199.918 51.061,199.429 50.571 C 198.653 49.796,151.253 49.707,150.480 50.480 M350.662 50.731 C 349.726 51.766,349.639 98.496,350.571 99.429 C 351.054 99.911,354.933 100.000,375.571 100.000 L 400.000 100.000 400.000 75.000 L 400.000 50.000 375.662 50.000 C 352.592 50.000,351.290 50.038,350.662 50.731 M200.480 150.480 C 199.707 151.253,199.796 198.653,200.571 199.429 C 201.054 199.911,204.869 200.000,225.091 200.000 C 243.185 200.000,249.157 200.117,249.520 200.480 C 250.217 201.177,250.217 298.823,249.520 299.520 C 249.150 299.890,232.053 300.000,175.000 300.000 C 117.947 300.000,100.850 300.110,100.480 300.480 C 100.112 300.848,100.000 312.498,100.000 350.480 L 100.000 400.000 125.000 400.000 L 150.000 400.000 150.000 375.571 C 150.000 354.933,150.089 351.054,150.571 350.571 C 151.347 349.796,198.747 349.707,199.520 350.480 C 199.883 350.843,200.000 356.942,200.000 375.480 L 200.000 400.000 225.000 400.000 L 250.000 400.000 250.000 375.571 C 250.000 354.933,250.089 351.054,250.571 350.571 C 251.054 350.089,254.933 350.000,275.571 350.000 L 300.000 350.000 300.000 250.571 C 300.000 164.933,299.921 151.064,299.429 150.571 C 298.649 149.792,201.258 149.702,200.480 150.480 M0.000 225.000 L 0.000 250.000 24.551 250.000 C 44.611 250.000,49.184 250.098,49.548 250.537 C 49.862 250.916,50.024 258.253,50.097 275.437 L 50.200 299.800 75.100 299.903 L 100.000 300.006 100.000 275.574 C 100.000 254.934,100.089 251.054,100.571 250.571 C 101.054 250.089,104.869 250.000,125.091 250.000 C 143.185 250.000,149.157 249.883,149.520 249.520 C 150.293 248.747,150.204 201.347,149.429 200.571 C 148.937 200.080,138.400 200.000,74.429 200.000 L 0.000 200.000 0.000 225.000 M350.660 250.733 C 350.049 251.409,350.005 255.310,350.098 300.633 L 350.200 349.800 375.100 349.903 L 400.000 350.006 400.000 300.003 L 400.000 250.000 375.662 250.000 C 352.571 250.000,351.290 250.038,350.660 250.733 M0.000 349.997 L 0.000 400.000 25.002 400.000 L 50.003 400.000 49.902 350.100 L 49.800 300.200 24.900 300.097 L 0.000 299.994 0.000 349.997 M300.483 350.477 C 300.116 350.844,300.000 356.856,300.000 375.480 L 300.000 400.000 325.003 400.000 L 350.006 400.000 349.903 375.100 L 349.800 350.200 325.383 350.097 C 306.724 350.018,300.852 350.108,300.483 350.477 " stroke="none" fill="#cccccc" fill-rule="evenodd" />
        <path id="path1" d="M0.000 25.000 L 0.000 50.000 24.429 50.000 C 45.067 50.000,48.946 50.089,49.429 50.571 C 49.911 51.054,50.000 54.869,50.000 75.091 C 50.000 93.185,50.117 99.157,50.480 99.520 C 50.843 99.883,56.815 100.000,74.909 100.000 C 95.131 100.000,98.946 100.089,99.429 100.571 C 100.204 101.347,100.293 148.747,99.520 149.520 C 99.152 149.888,87.502 150.000,49.520 150.000 L 0.000 150.000 0.000 175.000 L 0.000 200.000 74.429 200.000 C 138.400 200.000,148.937 200.080,149.429 200.571 C 150.204 201.347,150.293 248.747,149.520 249.520 C 149.157 249.883,143.185 250.000,125.091 250.000 C 104.869 250.000,101.054 250.089,100.571 250.571 C 100.089 251.054,100.000 254.934,100.000 275.574 L 100.000 300.006 75.100 299.903 L 50.200 299.800 50.097 275.437 C 50.024 258.253,49.862 250.916,49.548 250.537 C 49.184 250.098,44.611 250.000,24.551 250.000 L 0.000 250.000 -0.000 274.997 L -0.000 299.994 24.900 300.097 L 49.800 300.200 49.902 350.100 L 50.003 400.000 75.002 400.000 L 100.000 400.000 100.000 350.480 C 100.000 312.498,100.112 300.848,100.480 300.480 C 100.850 300.110,117.947 300.000,175.000 300.000 C 232.053 300.000,249.150 299.890,249.520 299.520 C 250.217 298.823,250.217 201.177,249.520 200.480 C 249.157 200.117,243.185 200.000,225.091 200.000 C 204.869 200.000,201.054 199.911,200.571 199.429 C 199.796 198.653,199.707 151.253,200.480 150.480 C 201.258 149.702,298.649 149.792,299.429 150.571 C 299.921 151.064,300.000 164.933,300.000 250.571 L 300.000 350.000 275.571 350.000 C 254.933 350.000,251.054 350.089,250.571 350.571 C 250.089 351.054,250.000 354.933,250.000 375.571 L 250.000 400.000 275.000 400.000 L 300.000 400.000 300.000 375.449 C 300.000 355.221,300.096 350.818,300.545 350.446 C 300.940 350.118,307.788 350.022,325.445 350.097 L 349.800 350.200 349.903 375.100 L 350.006 400.000 375.003 400.000 L 400.000 400.000 400.000 375.003 L 400.000 350.006 375.100 349.903 L 350.200 349.800 350.098 300.633 C 350.005 255.310,350.049 251.409,350.660 250.733 C 351.290 250.038,352.571 250.000,375.662 250.000 L 400.000 250.000 400.000 175.000 L 400.000 100.000 375.571 100.000 C 354.933 100.000,351.054 99.911,350.571 99.429 C 349.579 98.436,349.733 51.566,350.731 50.662 C 351.395 50.061,353.711 50.000,375.731 50.000 L 400.000 50.000 400.000 25.000 L 400.000 0.000 275.000 0.000 L 150.000 0.000 150.000 25.000 L 150.000 50.000 125.571 50.000 C 104.933 50.000,101.054 49.911,100.571 49.429 C 100.089 48.946,100.000 45.067,100.000 24.429 L 100.000 0.000 50.000 0.000 L 0.000 0.000 0.000 25.000 M199.429 50.571 C 199.918 51.061,200.000 58.267,200.000 100.571 L 200.000 150.000 175.571 150.000 C 154.933 150.000,151.054 149.911,150.571 149.429 C 149.792 148.649,149.702 51.258,150.480 50.480 C 151.253 49.707,198.653 49.796,199.429 50.571 M150.500 350.598 C 150.112 351.039,150.000 356.619,150.000 375.583 L 150.000 400.000 175.000 400.000 L 200.000 400.000 200.000 375.480 C 200.000 356.942,199.883 350.843,199.520 350.480 C 198.750 349.710,151.181 349.825,150.500 350.598 " stroke="none" fill="#24a46c" fill-rule="evenodd" />
    </g>
</svg>
