<?xml version="1.0" encoding="UTF-8"?>
<svg xmlns="http://www.w3.org/2000/svg" xmlns:xlink="http://www.w3.org/1999/xlink" id="svg" version="1.1" width="400" height="400" viewBox="0, 0, 400,400">
    <g id="svgg">
        <path id="path0" d="M100.400 23.831 L 100.400 47.662 101.579 48.840 L 102.758 50.019 125.759 49.910 C 143.979 49.823,148.868 49.692,149.280 49.280 C 149.693 48.868,149.822 43.731,149.909 24.380 L 150.018 0.000 125.209 0.000 L 100.400 0.000 100.400 23.831 M0.000 100.200 L 0.000 150.000 48.831 150.000 L 97.662 150.000 98.831 148.831 L 100.000 147.662 100.000 125.200 L 100.000 102.738 98.831 101.569 L 97.662 100.400 75.191 100.400 L 52.720 100.400 51.360 99.040 L 50.000 97.680 50.000 75.209 L 50.000 52.738 48.831 51.569 L 47.662 50.400 23.831 50.400 L 0.000 50.400 0.000 100.200 M151.877 50.680 C 150.440 51.052,150.400 52.409,150.400 100.257 L 150.400 147.662 151.579 148.840 L 152.758 150.019 175.759 149.910 C 193.982 149.823,198.868 149.692,199.280 149.280 C 199.700 148.860,199.820 139.492,199.905 100.754 L 200.010 52.748 198.836 51.574 L 197.662 50.400 175.131 50.446 C 162.739 50.472,152.275 50.577,151.877 50.680 M351.569 51.569 L 350.400 52.738 350.400 75.200 L 350.400 97.662 351.569 98.831 L 352.738 100.000 376.369 100.000 L 400.000 100.000 400.000 75.200 L 400.000 50.400 376.369 50.400 L 352.738 50.400 351.569 51.569 M201.877 150.680 C 200.497 151.038,200.400 152.650,200.400 175.257 L 200.400 197.662 201.569 198.831 L 202.738 200.000 225.209 200.000 L 247.680 200.000 249.040 201.360 L 250.400 202.720 250.400 250.154 L 250.400 297.587 249.233 298.894 L 248.066 300.200 174.853 300.400 C 115.525 300.562,101.541 300.699,101.120 301.120 C 100.700 301.540,100.580 311.111,100.495 350.820 L 100.391 400.000 125.195 400.000 L 150.000 400.000 150.000 376.360 L 150.000 352.720 151.360 351.360 L 152.720 350.000 175.200 350.000 L 197.680 350.000 199.040 351.360 L 200.400 352.720 200.400 376.360 L 200.400 400.000 225.200 400.000 L 250.000 400.000 250.000 376.406 L 250.000 352.813 251.167 351.506 L 252.334 350.200 275.547 350.000 C 293.849 349.842,298.871 349.690,299.280 349.280 C 299.703 348.857,299.819 330.500,299.902 250.752 L 300.005 152.743 298.833 151.572 L 297.662 150.400 250.131 150.446 C 223.989 150.472,202.275 150.577,201.877 150.680 M0.000 225.200 L 0.000 250.000 23.794 250.000 L 47.587 250.000 48.894 251.167 L 50.200 252.334 50.400 275.547 C 50.558 293.849,50.710 298.871,51.120 299.280 C 51.884 300.044,98.516 300.044,99.280 299.280 C 99.690 298.871,99.842 293.849,100.000 275.547 L 100.200 252.334 101.506 251.167 L 102.813 250.000 125.237 250.000 L 147.662 250.000 148.831 248.831 L 150.000 247.662 150.000 225.200 L 150.000 202.738 148.831 201.569 L 147.662 200.400 73.831 200.400 L 0.000 200.400 0.000 225.200 M351.564 251.574 L 350.390 252.748 350.495 300.754 C 350.580 339.492,350.700 348.860,351.120 349.280 C 351.532 349.693,356.629 349.823,375.820 349.909 L 400.000 350.018 400.000 300.209 L 400.000 250.400 376.369 250.400 L 352.738 250.400 351.564 251.574 M0.000 350.191 L 0.000 400.000 25.005 400.000 L 50.009 400.000 49.905 350.820 C 49.820 311.118,49.700 301.540,49.280 301.120 C 48.868 300.707,43.735 300.578,24.380 300.491 L 0.000 300.382 0.000 350.191 M301.877 350.675 C 300.492 351.044,300.400 352.641,300.400 376.426 L 300.400 400.000 325.209 400.000 L 350.018 400.000 349.909 375.820 C 349.823 356.633,349.693 351.532,349.280 351.120 C 348.766 350.606,303.729 350.183,301.877 350.675 " stroke="none" fill="#cccccc" fill-rule="evenodd" />
        <path id="path1" d="M0.000 25.200 L 0.000 50.400 23.831 50.400 L 47.662 50.400 48.831 51.569 L 50.000 52.738 50.000 75.209 L 50.000 97.680 51.360 99.040 L 52.720 100.400 75.191 100.400 L 97.662 100.400 98.831 101.569 L 100.000 102.738 100.000 125.200 L 100.000 147.662 98.831 148.831 L 97.662 150.000 48.831 150.000 L 0.000 150.000 0.000 175.200 L 0.000 200.400 73.831 200.400 L 147.662 200.400 148.831 201.569 L 150.000 202.738 150.000 225.200 L 150.000 247.662 148.831 248.831 L 147.662 250.000 125.237 250.000 L 102.813 250.000 101.506 251.167 L 100.200 252.334 100.000 275.547 C 99.842 293.849,99.690 298.871,99.280 299.280 C 98.516 300.044,51.884 300.044,51.120 299.280 C 50.710 298.871,50.558 293.849,50.400 275.547 L 50.200 252.334 48.894 251.167 L 47.587 250.000 23.794 250.000 L 0.000 250.000 0.000 275.191 L 0.000 300.382 24.380 300.491 C 43.735 300.578,48.868 300.707,49.280 301.120 C 49.700 301.540,49.820 311.118,49.905 350.820 L 50.009 400.000 75.200 400.000 L 100.391 400.000 100.495 350.820 C 100.580 311.111,100.700 301.540,101.120 301.120 C 101.541 300.699,115.525 300.562,174.853 300.400 L 248.066 300.200 249.233 298.894 L 250.400 297.587 250.400 250.154 L 250.400 202.720 249.040 201.360 L 247.680 200.000 225.209 200.000 L 202.738 200.000 201.560 198.821 L 200.381 197.642 200.490 174.641 C 200.577 156.418,200.708 151.532,201.120 151.120 C 201.540 150.700,210.908 150.580,249.646 150.495 L 297.652 150.390 298.828 151.567 L 300.005 152.743 299.902 250.752 C 299.819 330.500,299.703 348.857,299.280 349.280 C 298.871 349.690,293.849 349.842,275.547 350.000 L 252.334 350.200 251.167 351.506 L 250.000 352.813 250.000 376.406 L 250.000 400.000 275.191 400.000 L 300.382 400.000 300.491 375.820 C 300.577 356.628,300.707 351.532,301.120 351.120 C 301.884 350.356,348.516 350.356,349.280 351.120 C 349.693 351.532,349.823 356.628,349.909 375.820 L 350.018 400.000 375.009 400.000 L 400.000 400.000 400.000 375.009 L 400.000 350.018 375.820 349.909 C 356.629 349.823,351.532 349.693,351.120 349.280 C 350.700 348.860,350.580 339.492,350.495 300.754 L 350.390 252.748 351.564 251.574 L 352.738 250.400 376.369 250.400 L 400.000 250.400 400.000 175.200 L 400.000 100.000 376.369 100.000 L 352.738 100.000 351.569 98.831 L 350.400 97.662 350.400 75.200 L 350.400 52.738 351.569 51.569 L 352.738 50.400 376.369 50.400 L 400.000 50.400 400.000 25.200 L 400.000 0.000 275.009 -0.000 L 150.018 -0.000 149.909 24.380 C 149.822 43.731,149.693 48.868,149.280 49.280 C 148.868 49.692,143.979 49.823,125.759 49.910 L 102.758 50.019 101.579 48.840 L 100.400 47.662 100.400 23.831 L 100.400 0.000 50.200 0.000 L 0.000 0.000 0.000 25.200 M198.836 51.574 L 200.010 52.748 199.905 100.754 C 199.820 139.492,199.700 148.860,199.280 149.280 C 198.868 149.692,193.982 149.823,175.759 149.910 L 152.758 150.019 151.579 148.840 L 150.400 147.662 150.400 100.257 C 150.400 71.524,150.549 52.461,150.777 51.860 C 151.314 50.447,150.446 50.497,175.131 50.446 L 197.662 50.400 198.836 51.574 M151.360 351.360 L 150.000 352.720 150.000 376.360 L 150.000 400.000 175.200 400.000 L 200.400 400.000 200.400 376.360 L 200.400 352.720 199.040 351.360 L 197.680 350.000 175.200 350.000 L 152.720 350.000 151.360 351.360 " stroke="none" fill="#139c64" fill-rule="evenodd" />
    </g>
</svg>
