<?xml version="1.0" encoding="UTF-8"?>
<svg xmlns="http://www.w3.org/2000/svg" xmlns:xlink="http://www.w3.org/1999/xlink" id="svg" version="1.1" width="400" height="133.33333333333334" viewBox="0, 0, 400,133.33333333333334">
    <g id="svgg">
        <path id="path0" d="M39.792 12.777 C 39.953 12.842,40.000 14.358,40.000 19.564 C 40.000 24.555,40.051 26.318,40.200 26.467 C 40.349 26.615,42.059 26.667,46.867 26.667 L 53.333 26.667 53.333 39.800 C 53.333 49.793,53.381 52.981,53.533 53.133 C 53.682 53.282,55.393 53.333,60.200 53.333 L 66.667 53.333 66.667 59.813 C 66.667 65.020,66.710 66.329,66.890 66.478 C 67.042 66.604,69.128 66.676,73.515 66.706 L 79.917 66.750 79.917 80.000 L 79.917 93.250 59.956 93.292 L 39.996 93.335 40.040 86.709 L 40.083 80.083 46.485 80.040 C 50.872 80.010,52.958 79.938,53.110 79.811 C 53.418 79.555,53.440 67.174,53.133 66.867 C 52.980 66.713,48.259 66.667,32.897 66.667 C 17.024 66.667,12.844 66.623,12.777 66.458 C 12.731 66.344,12.688 69.438,12.682 73.333 C 12.677 77.229,12.732 80.322,12.805 80.206 C 12.910 80.042,14.414 80.006,19.761 80.040 L 26.583 80.083 26.627 86.708 L 26.670 93.333 19.766 93.333 C 14.399 93.333,12.842 93.287,12.776 93.125 C 12.729 93.010,12.687 99.044,12.683 106.534 C 12.675 118.454,12.705 120.182,12.925 120.402 C 13.142 120.618,14.151 120.652,20.130 120.648 C 23.954 120.646,26.990 120.605,26.875 120.558 C 26.711 120.490,26.667 117.601,26.667 106.903 L 26.667 93.333 33.333 93.333 L 40.000 93.333 40.000 106.903 C 40.000 117.602,39.956 120.490,39.792 120.556 C 39.677 120.603,42.771 120.645,46.667 120.651 C 50.563 120.657,53.655 120.602,53.540 120.528 C 53.375 120.424,53.339 118.920,53.373 113.572 L 53.417 106.750 60.000 106.750 L 66.583 106.750 66.627 113.572 C 66.661 118.920,66.625 120.424,66.460 120.528 C 66.345 120.602,69.438 120.662,73.333 120.662 C 77.229 120.662,80.322 120.602,80.206 120.528 C 80.042 120.424,80.006 118.920,80.040 113.572 L 80.083 106.750 86.708 106.706 L 93.333 106.663 93.333 113.568 C 93.333 118.935,93.287 120.491,93.125 120.556 C 93.010 120.603,96.104 120.640,100.000 120.640 C 103.896 120.640,106.990 120.603,106.875 120.556 C 106.713 120.491,106.667 118.936,106.667 113.569 L 106.667 106.667 113.569 106.667 C 118.936 106.667,120.491 106.713,120.556 106.875 C 120.603 106.990,120.640 100.896,120.640 93.333 C 120.640 85.771,120.603 79.677,120.556 79.792 C 120.491 79.953,118.976 80.000,113.769 80.000 C 108.778 80.000,107.016 80.051,106.867 80.200 C 106.714 80.352,106.667 83.541,106.667 93.533 L 106.667 106.667 100.000 106.667 L 93.333 106.667 93.333 80.200 C 93.333 59.837,93.287 53.687,93.133 53.533 C 92.981 53.381,89.793 53.333,79.800 53.333 L 66.667 53.333 66.667 40.200 C 66.667 30.207,66.619 27.019,66.467 26.867 C 66.318 26.718,64.607 26.667,59.800 26.667 L 53.333 26.667 53.333 19.764 C 53.333 14.398,53.380 12.842,53.542 12.777 C 53.656 12.731,50.563 12.693,46.667 12.693 C 42.771 12.693,39.677 12.731,39.792 12.777 M12.693 40.000 C 12.693 47.563,12.731 53.656,12.777 53.542 C 12.843 53.377,15.691 53.333,26.231 53.333 C 36.407 53.333,39.648 53.286,39.800 53.133 C 40.107 52.826,40.085 40.445,39.777 40.189 C 39.624 40.062,37.539 39.990,33.152 39.960 L 26.750 39.917 26.706 33.515 C 26.676 29.128,26.604 27.042,26.478 26.890 C 26.329 26.710,24.982 26.667,19.577 26.667 C 14.360 26.667,12.842 26.620,12.777 26.458 C 12.731 26.344,12.693 32.438,12.693 40.000 M120.500 26.500 C 120.500 26.608,118.150 26.667,113.783 26.667 C 108.781 26.667,107.016 26.718,106.867 26.867 C 106.580 27.154,106.580 39.513,106.867 39.800 C 107.016 39.949,108.778 40.000,113.769 40.000 C 118.976 40.000,120.491 40.047,120.556 40.208 C 120.603 40.323,120.646 37.248,120.654 33.375 C 120.661 29.502,120.629 26.333,120.583 26.333 C 120.537 26.333,120.500 26.408,120.500 26.500 " stroke="none" fill="#cccccc" fill-rule="evenodd" />
        <path id="path1" d="M12.929 12.929 C 12.660 13.197,12.511 25.733,12.768 26.403 C 12.858 26.637,13.614 26.667,19.581 26.667 C 24.982 26.667,26.329 26.710,26.478 26.890 C 26.604 27.042,26.676 29.128,26.706 33.515 L 26.750 39.917 33.152 39.960 C 37.539 39.990,39.624 40.062,39.777 40.189 C 40.085 40.445,40.107 52.826,39.800 53.133 C 39.648 53.286,36.408 53.333,26.234 53.333 C 14.201 53.333,12.859 53.360,12.768 53.597 C 12.636 53.941,12.636 66.059,12.768 66.403 C 12.859 66.641,14.788 66.667,32.901 66.667 C 48.260 66.667,52.980 66.713,53.133 66.867 C 53.440 67.174,53.418 79.555,53.110 79.811 C 52.958 79.938,50.872 80.010,46.485 80.040 L 40.083 80.083 40.040 86.708 L 39.996 93.333 33.333 93.333 L 26.670 93.333 26.627 86.708 L 26.583 80.083 19.761 80.040 C 14.414 80.006,12.910 80.042,12.805 80.206 C 12.651 80.449,12.616 92.673,12.768 93.070 C 12.858 93.304,13.631 93.333,19.768 93.333 L 26.667 93.333 26.667 106.899 C 26.667 119.115,26.693 120.474,26.930 120.566 C 27.075 120.621,29.957 120.667,33.333 120.667 C 36.710 120.667,39.591 120.621,39.736 120.566 C 39.974 120.474,40.000 119.115,40.000 106.900 L 40.000 93.335 59.958 93.292 L 79.917 93.250 79.917 80.000 L 79.917 66.750 73.515 66.706 C 69.128 66.676,67.042 66.604,66.890 66.478 C 66.710 66.329,66.667 65.020,66.667 59.813 L 66.667 53.333 79.800 53.333 C 89.793 53.333,92.981 53.381,93.133 53.533 C 93.287 53.687,93.333 59.837,93.333 80.198 L 93.333 106.663 86.708 106.706 L 80.083 106.750 80.040 113.572 C 80.006 118.920,80.042 120.424,80.206 120.528 C 80.449 120.682,92.673 120.718,93.070 120.566 C 93.304 120.476,93.333 119.703,93.333 113.566 L 93.333 106.667 100.000 106.667 L 106.667 106.667 106.667 113.566 C 106.667 119.703,106.696 120.476,106.930 120.566 C 107.600 120.822,120.137 120.673,120.405 120.405 C 120.673 120.137,120.822 107.600,120.566 106.930 C 120.476 106.696,119.703 106.667,113.566 106.667 L 106.667 106.667 106.667 93.533 C 106.667 83.541,106.714 80.352,106.867 80.200 C 107.016 80.051,108.778 80.000,113.766 80.000 C 119.720 80.000,120.476 79.971,120.566 79.736 C 120.698 79.392,120.698 40.608,120.566 40.264 C 120.476 40.029,119.720 40.000,113.766 40.000 C 108.778 40.000,107.016 39.949,106.867 39.800 C 106.580 39.513,106.580 27.154,106.867 26.867 C 107.016 26.718,108.778 26.667,113.766 26.667 C 119.720 26.667,120.476 26.637,120.566 26.403 C 120.822 25.733,120.673 13.197,120.405 12.929 C 120.137 12.661,54.288 12.503,53.597 12.768 C 53.362 12.858,53.333 13.631,53.333 19.768 L 53.333 26.667 46.867 26.667 C 42.059 26.667,40.349 26.615,40.200 26.467 C 40.051 26.318,40.000 24.556,40.000 19.568 C 40.000 13.613,39.971 12.858,39.736 12.768 C 39.053 12.506,13.196 12.661,12.929 12.929 M66.467 26.867 C 66.619 27.019,66.667 30.207,66.667 40.200 L 66.667 53.333 60.200 53.333 C 55.393 53.333,53.682 53.282,53.533 53.133 C 53.381 52.981,53.333 49.793,53.333 39.800 L 53.333 26.667 59.800 26.667 C 64.607 26.667,66.318 26.718,66.467 26.867 M154.583 47.190 C 151.579 47.763,150.507 48.124,148.773 49.145 C 145.370 51.148,143.667 54.259,143.667 58.468 C 143.667 64.196,146.249 67.141,153.417 69.588 C 159.633 71.711,161.712 74.393,159.524 77.467 C 157.095 80.878,152.995 80.536,148.847 76.576 C 146.137 73.988,146.138 73.988,144.489 77.451 C 143.107 80.354,143.106 80.376,144.170 81.655 C 146.326 84.246,148.575 85.493,152.877 86.484 C 159.673 88.049,166.566 83.205,167.397 76.279 C 168.177 69.777,165.234 65.988,157.250 63.215 C 152.356 61.515,151.000 60.355,151.000 57.867 C 151.000 53.249,156.822 52.391,161.667 56.296 C 164.051 58.217,164.122 58.193,165.327 55.057 C 166.596 51.755,166.597 51.688,165.394 50.525 C 162.666 47.889,158.178 46.504,154.583 47.190 M253.397 49.845 C 252.858 50.218,251.742 50.977,250.917 51.532 C 248.895 52.892,249.000 52.682,249.000 55.351 L 249.000 57.638 247.091 57.694 C 244.615 57.767,244.808 57.517,244.339 61.250 C 244.247 61.983,244.125 62.820,244.069 63.109 C 243.870 64.133,244.322 64.333,246.833 64.333 L 249.000 64.333 249.000 72.183 C 249.000 78.773,249.041 80.174,249.258 80.919 C 250.507 85.217,255.468 87.441,260.408 85.920 C 263.019 85.116,263.079 85.006,262.975 81.205 C 262.893 78.175,262.665 78.010,260.055 79.090 C 258.802 79.609,258.485 79.675,257.440 79.632 C 255.587 79.556,255.667 79.928,255.667 71.375 L 255.667 64.333 258.635 64.333 C 262.547 64.333,262.250 64.599,262.250 61.103 C 262.250 57.496,262.534 57.765,258.661 57.698 L 255.667 57.646 255.667 53.729 C 255.667 48.681,255.498 48.393,253.397 49.845 M272.362 49.989 C 269.514 50.713,269.055 55.146,271.679 56.574 C 274.251 57.974,277.083 56.378,277.083 53.527 C 277.083 50.873,275.007 49.317,272.362 49.989 M187.000 57.595 C 185.274 57.851,184.717 57.998,183.375 58.549 L 182.333 58.977 182.333 58.584 C 182.333 57.874,181.888 57.619,180.845 57.731 C 177.816 58.056,175.998 58.401,175.819 58.685 C 175.523 59.151,175.631 95.940,175.929 96.238 C 176.181 96.490,177.577 96.479,178.333 96.220 C 178.471 96.173,179.033 96.068,179.583 95.987 C 181.311 95.733,182.036 95.545,182.184 95.310 C 182.264 95.185,182.329 92.852,182.331 90.125 C 182.332 87.398,182.368 85.167,182.411 85.167 C 182.453 85.167,182.810 85.275,183.203 85.407 C 192.184 88.428,200.328 83.942,202.480 74.789 C 202.701 73.849,202.730 69.925,202.521 69.233 C 202.441 68.967,202.281 68.345,202.166 67.850 C 200.880 62.319,195.954 58.109,190.167 57.594 C 189.479 57.533,188.804 57.461,188.667 57.434 C 188.529 57.407,187.779 57.480,187.000 57.595 M222.833 57.525 C 220.125 58.072,218.762 58.581,217.096 59.669 C 215.558 60.673,214.672 61.469,213.733 62.689 C 212.423 64.391,211.730 65.875,210.819 68.928 C 210.169 71.108,210.789 75.768,212.082 78.417 C 217.921 90.382,235.695 88.351,238.693 75.376 C 240.973 65.507,232.200 55.632,222.833 57.525 M274.583 57.665 C 274.125 57.834,273.093 58.173,272.290 58.418 C 270.121 59.081,270.333 57.530,270.333 72.685 C 270.333 88.062,270.132 86.631,272.251 86.331 C 275.709 85.841,276.599 85.639,276.982 85.256 C 277.344 84.894,277.478 58.535,277.121 57.833 C 276.847 57.296,275.780 57.225,274.583 57.665 M296.637 57.583 C 295.557 57.820,293.813 58.598,292.735 59.326 L 292.000 59.822 292.000 59.006 C 292.000 57.805,291.734 57.610,290.263 57.729 C 287.409 57.959,285.729 58.302,285.473 58.705 C 285.172 59.179,285.309 85.785,285.614 86.090 C 285.904 86.380,286.051 86.375,288.250 86.005 C 288.708 85.927,289.544 85.789,290.108 85.697 C 290.947 85.560,291.661 85.326,291.869 85.119 C 291.889 85.099,291.945 81.596,291.994 77.333 L 292.083 69.583 292.685 68.333 C 293.727 66.168,295.899 64.167,297.206 64.167 C 297.481 64.167,297.963 64.446,298.528 64.933 C 300.452 66.593,300.659 66.510,302.185 63.464 C 303.827 60.186,303.807 59.998,301.673 58.596 C 299.807 57.370,298.665 57.140,296.637 57.583 M354.000 57.491 C 353.771 57.569,353.326 57.641,353.012 57.650 C 351.896 57.682,349.478 58.619,347.975 59.600 C 344.882 61.618,342.837 64.666,341.859 68.711 C 341.630 69.654,341.601 74.340,341.819 75.072 C 341.903 75.353,342.137 76.146,342.340 76.833 C 343.640 81.244,347.212 84.734,351.659 85.938 C 353.260 86.371,357.577 86.500,358.897 86.153 C 360.435 85.750,360.969 85.578,362.083 85.125 C 363.622 84.500,365.313 83.388,365.429 82.926 C 365.480 82.723,365.300 81.935,365.025 81.155 C 363.822 77.751,363.748 77.590,363.284 77.366 C 362.781 77.123,362.938 77.065,360.749 78.311 C 353.311 82.548,345.992 76.367,349.131 68.500 C 350.918 64.021,356.163 62.882,361.271 65.865 C 363.028 66.890,363.374 66.818,363.963 65.304 C 365.549 61.220,365.647 60.813,365.157 60.324 C 363.494 58.661,356.082 56.779,354.000 57.491 M320.917 57.863 C 316.618 58.439,313.383 60.393,311.227 63.717 C 310.151 65.375,309.817 66.172,309.180 68.603 C 308.859 69.825,308.952 74.495,309.324 75.878 C 310.825 81.452,314.435 85.039,320.008 86.493 C 320.908 86.728,325.565 86.638,326.583 86.367 C 326.950 86.269,327.528 86.118,327.867 86.030 C 329.386 85.640,333.176 83.436,333.759 82.603 C 334.129 82.075,334.110 75.634,333.738 75.262 C 333.305 74.829,332.745 74.961,331.807 75.719 C 326.284 80.183,323.314 81.031,319.693 79.179 C 318.412 78.524,316.100 75.994,316.461 75.642 C 316.593 75.514,318.638 74.828,325.333 72.666 C 327.671 71.911,330.671 70.937,332.000 70.501 L 334.417 69.709 334.570 69.109 C 334.675 68.698,334.657 68.285,334.514 67.796 C 334.400 67.404,334.221 66.783,334.118 66.417 C 332.789 61.693,328.914 58.439,324.000 57.919 C 323.496 57.865,322.858 57.796,322.583 57.764 C 322.308 57.733,321.558 57.777,320.917 57.863 M189.540 64.263 C 192.322 64.605,195.650 67.871,195.671 70.281 C 195.673 70.539,195.745 71.052,195.830 71.421 C 196.033 72.299,195.689 74.307,195.126 75.538 C 192.820 80.574,185.121 81.180,182.756 76.511 C 182.178 75.372,182.106 68.767,182.658 67.552 C 183.527 65.637,186.858 63.653,188.456 64.097 C 188.570 64.129,189.057 64.203,189.540 64.263 M226.000 64.261 C 231.795 65.114,234.160 72.843,230.012 77.373 C 224.052 83.883,214.069 75.664,218.508 67.902 C 219.720 65.783,223.076 63.789,224.917 64.095 C 225.100 64.126,225.588 64.200,226.000 64.261 M323.955 64.650 C 324.432 64.825,325.021 65.123,325.263 65.314 L 325.704 65.661 325.310 65.810 C 325.094 65.892,324.579 66.076,324.167 66.219 C 323.392 66.487,318.092 68.341,316.923 68.753 C 316.098 69.043,316.102 69.050,316.538 68.158 C 317.877 65.419,321.443 63.732,323.955 64.650 M53.446 106.776 C 53.174 107.048,53.321 120.460,53.597 120.566 C 53.994 120.718,66.218 120.682,66.460 120.528 C 66.625 120.424,66.661 118.920,66.627 113.572 L 66.583 106.750 60.071 106.706 C 56.490 106.682,53.509 106.714,53.446 106.776 " stroke="none" fill="#24a46c" fill-rule="evenodd" />
    </g>
</svg>
