<?xml version="1.0" encoding="UTF-8"?>
<svg xmlns="http://www.w3.org/2000/svg" xmlns:xlink="http://www.w3.org/1999/xlink" id="svg" version="1.1" width="400" height="133.33333333333334" viewBox="0, 0, 400,133.33333333333334">
    <g id="svgg">
        <path id="path0" d="M40.000 19.396 C 40.000 25.025,40.042 26.327,40.228 26.482 C 40.391 26.617,42.269 26.658,46.853 26.627 L 53.250 26.583 53.293 19.542 L 53.337 12.500 46.668 12.500 L 40.000 12.500 40.000 19.396 M12.500 40.000 L 12.500 53.333 26.050 53.333 C 36.367 53.333,39.648 53.286,39.800 53.133 C 40.087 52.846,40.087 40.487,39.800 40.200 C 39.652 40.052,37.985 40.000,33.333 40.000 C 28.681 40.000,27.015 39.948,26.867 39.800 C 26.718 39.652,26.667 37.985,26.667 33.333 C 26.667 28.681,26.615 27.015,26.467 26.867 C 26.318 26.718,24.515 26.667,19.383 26.667 L 12.500 26.667 12.500 40.000 M53.444 26.778 C 53.203 27.019,53.318 52.946,53.561 53.148 C 53.724 53.284,55.603 53.325,60.186 53.294 L 66.583 53.250 66.626 40.185 C 66.657 30.671,66.618 27.058,66.481 26.893 C 66.280 26.652,53.682 26.540,53.444 26.778 M106.867 26.867 C 106.718 27.015,106.667 28.681,106.667 33.333 C 106.667 37.985,106.718 39.652,106.867 39.800 C 107.016 39.949,108.819 40.000,113.950 40.000 L 120.833 40.000 120.833 33.333 L 120.833 26.667 113.950 26.667 C 108.819 26.667,107.016 26.718,106.867 26.867 M66.778 53.444 C 66.563 53.659,66.649 66.249,66.867 66.467 C 67.015 66.615,68.681 66.667,73.333 66.667 C 77.985 66.667,79.652 66.718,79.800 66.867 C 80.111 67.178,80.087 92.887,79.775 93.146 C 79.613 93.280,74.064 93.344,59.817 93.374 L 40.083 93.417 40.041 107.125 L 39.998 120.833 46.666 120.833 L 53.333 120.833 53.333 113.950 C 53.333 108.819,53.384 107.016,53.533 106.867 C 53.820 106.580,66.180 106.580,66.467 106.867 C 66.616 107.016,66.667 108.819,66.667 113.950 L 66.667 120.833 73.333 120.833 L 80.000 120.833 80.000 113.937 C 80.000 108.382,80.043 107.005,80.223 106.856 C 80.376 106.729,82.461 106.657,86.848 106.627 L 93.250 106.583 93.292 80.184 C 93.323 60.812,93.284 53.725,93.147 53.559 C 92.946 53.318,67.017 53.205,66.778 53.444 M12.500 73.333 L 12.500 80.000 19.396 80.000 C 24.952 80.000,26.328 80.043,26.478 80.223 C 26.604 80.376,26.676 82.461,26.706 86.848 L 26.750 93.250 33.333 93.250 L 39.917 93.250 39.960 86.848 C 39.990 82.461,40.062 80.376,40.189 80.223 C 40.338 80.044,41.613 80.000,46.654 80.000 C 51.316 80.000,52.985 79.948,53.133 79.800 C 53.420 79.513,53.420 67.154,53.133 66.867 C 52.980 66.713,48.219 66.667,32.717 66.667 L 12.500 66.667 12.500 73.333 M106.853 80.227 C 106.716 80.392,106.676 84.005,106.707 93.518 L 106.750 106.583 113.792 106.627 L 120.833 106.670 120.833 93.335 L 120.833 80.000 113.937 80.000 C 108.326 80.000,107.006 80.042,106.853 80.227 M12.500 106.657 L 12.500 119.985 12.924 120.409 L 13.348 120.833 20.009 120.833 L 26.669 120.833 26.626 107.125 L 26.583 93.417 19.542 93.373 L 12.500 93.330 12.500 106.657 M93.446 106.776 C 93.384 106.838,93.333 110.026,93.333 113.861 L 93.333 120.833 100.002 120.833 L 106.670 120.833 106.627 113.792 L 106.583 106.750 100.071 106.706 C 96.490 106.682,93.509 106.714,93.446 106.776 " stroke="none" fill="#cccccc" fill-rule="evenodd" />
        <path id="path1" d="M13.116 12.617 C 12.557 12.761,12.500 13.459,12.500 20.094 L 12.500 26.667 19.383 26.667 C 24.515 26.667,26.318 26.718,26.467 26.867 C 26.615 27.015,26.667 28.681,26.667 33.333 C 26.667 37.985,26.718 39.652,26.867 39.800 C 27.015 39.948,28.681 40.000,33.333 40.000 C 37.985 40.000,39.652 40.052,39.800 40.200 C 40.087 40.487,40.087 52.846,39.800 53.133 C 39.648 53.286,36.367 53.333,26.050 53.333 L 12.500 53.333 12.500 60.000 L 12.500 66.667 32.717 66.667 C 48.219 66.667,52.980 66.713,53.133 66.867 C 53.420 67.154,53.420 79.513,53.133 79.800 C 52.985 79.948,51.316 80.000,46.654 80.000 C 41.613 80.000,40.338 80.044,40.189 80.223 C 40.062 80.376,39.990 82.461,39.960 86.848 L 39.917 93.250 33.333 93.250 L 26.750 93.250 26.706 86.848 C 26.676 82.461,26.604 80.376,26.478 80.223 C 26.328 80.043,24.952 80.000,19.396 80.000 L 12.500 80.000 12.500 86.665 L 12.500 93.330 19.542 93.373 L 26.583 93.417 26.626 107.125 L 26.669 120.833 33.333 120.833 L 39.998 120.833 40.041 107.125 L 40.083 93.417 59.817 93.374 C 74.064 93.344,79.613 93.280,79.775 93.146 C 80.087 92.887,80.111 67.178,79.800 66.867 C 79.652 66.718,77.982 66.667,73.320 66.667 C 68.214 66.667,67.006 66.624,66.852 66.439 C 66.716 66.276,66.675 64.397,66.706 59.814 L 66.750 53.417 79.854 53.374 C 90.748 53.339,92.989 53.370,93.146 53.558 C 93.285 53.726,93.323 60.743,93.292 80.184 L 93.250 106.583 86.848 106.627 C 82.461 106.657,80.376 106.729,80.223 106.856 C 80.043 107.005,80.000 108.382,80.000 113.937 L 80.000 120.833 86.665 120.833 L 93.330 120.833 93.373 113.792 L 93.417 106.750 100.000 106.750 L 106.583 106.750 106.627 113.797 L 106.670 120.844 113.494 120.797 C 118.818 120.760,120.365 120.702,120.533 120.533 C 120.702 120.365,120.760 118.818,120.797 113.494 L 120.844 106.670 113.797 106.627 L 106.750 106.583 106.707 93.518 C 106.676 84.005,106.716 80.392,106.853 80.227 C 107.006 80.042,108.326 80.000,113.937 80.000 L 120.833 80.000 120.833 60.000 L 120.833 40.000 113.950 40.000 C 108.819 40.000,107.016 39.949,106.867 39.800 C 106.580 39.513,106.580 27.154,106.867 26.867 C 107.016 26.718,108.820 26.667,113.955 26.667 L 120.844 26.667 120.797 19.842 C 120.760 14.514,120.702 12.969,120.533 12.800 C 120.357 12.624,114.027 12.575,86.827 12.540 L 53.337 12.498 53.293 19.540 L 53.250 26.583 46.853 26.627 C 42.269 26.658,40.391 26.617,40.228 26.482 C 40.042 26.327,40.000 25.025,40.000 19.396 L 40.000 12.500 26.708 12.519 C 19.398 12.530,13.281 12.574,13.116 12.617 M66.481 26.893 C 66.618 27.058,66.657 30.671,66.626 40.185 L 66.583 53.250 60.186 53.294 C 55.603 53.325,53.724 53.284,53.561 53.148 C 53.318 52.946,53.203 27.019,53.444 26.778 C 53.682 26.540,66.280 26.652,66.481 26.893 M156.583 46.778 C 156.400 46.818,156.100 46.916,155.917 46.996 C 155.733 47.075,154.848 47.182,153.949 47.233 C 152.975 47.288,152.133 47.426,151.866 47.575 C 151.619 47.712,151.098 47.904,150.708 48.002 C 150.319 48.099,150.000 48.246,150.000 48.327 C 150.000 48.407,149.776 48.523,149.502 48.583 C 149.228 48.643,148.962 48.760,148.911 48.842 C 148.860 48.925,148.409 49.264,147.909 49.596 C 146.875 50.282,145.727 51.505,145.404 52.263 C 145.284 52.546,145.069 52.873,144.926 52.992 C 144.783 53.111,144.667 53.321,144.667 53.459 C 144.667 53.597,144.498 53.982,144.292 54.314 C 143.933 54.890,143.917 55.074,143.917 58.500 C 143.917 61.926,143.933 62.110,144.292 62.686 C 144.498 63.018,144.667 63.379,144.667 63.490 C 144.667 64.498,147.572 67.253,149.758 68.319 C 150.212 68.540,150.856 68.859,151.189 69.027 C 151.523 69.196,151.899 69.333,152.025 69.333 C 152.152 69.333,152.516 69.472,152.836 69.641 C 153.155 69.810,153.679 69.998,154.000 70.058 C 154.321 70.118,154.808 70.269,155.083 70.393 C 155.358 70.517,155.958 70.787,156.417 70.993 C 156.875 71.199,157.400 71.448,157.583 71.546 C 157.767 71.645,158.079 71.811,158.277 71.914 C 160.370 73.012,160.796 76.637,159.007 78.131 C 157.389 79.482,153.625 79.935,152.497 78.914 C 152.347 78.778,152.141 78.667,152.039 78.667 C 151.763 78.667,149.554 76.846,148.422 75.686 C 147.109 74.341,145.333 74.226,145.333 75.486 C 145.333 75.649,145.183 75.955,145.000 76.167 C 144.817 76.378,144.667 76.679,144.667 76.836 C 144.667 76.993,144.517 77.312,144.333 77.545 C 144.150 77.779,144.000 78.070,143.999 78.193 C 143.998 78.316,143.849 78.642,143.667 78.917 C 142.694 80.385,143.762 82.167,147.088 84.625 C 147.615 85.015,148.151 85.333,148.280 85.333 C 148.408 85.333,148.717 85.476,148.965 85.651 C 149.213 85.826,149.709 86.019,150.066 86.080 C 150.423 86.141,150.907 86.317,151.142 86.470 C 151.775 86.885,158.318 86.887,159.123 86.472 C 159.420 86.319,159.908 86.140,160.207 86.075 C 160.505 86.010,160.929 85.816,161.147 85.645 C 161.366 85.474,161.642 85.333,161.762 85.333 C 162.069 85.333,164.333 83.504,164.871 82.821 C 165.119 82.507,165.419 82.136,165.539 81.997 C 165.909 81.566,166.667 80.203,166.667 79.968 C 166.667 79.845,166.835 79.446,167.042 79.081 C 167.398 78.450,167.417 78.238,167.417 74.917 C 167.417 71.595,167.398 71.383,167.042 70.752 C 166.835 70.387,166.667 69.992,166.667 69.874 C 166.667 69.463,165.745 68.241,164.472 66.965 C 163.254 65.745,162.837 65.452,161.227 64.688 C 160.847 64.508,160.487 64.280,160.425 64.180 C 160.364 64.081,160.158 64.000,159.968 64.000 C 159.778 64.000,159.389 63.858,159.103 63.684 C 158.817 63.511,158.269 63.317,157.885 63.255 C 157.500 63.192,157.097 63.034,156.989 62.904 C 156.881 62.773,156.641 62.667,156.456 62.667 C 156.156 62.667,155.819 62.536,154.333 61.844 C 152.773 61.117,151.424 60.064,151.288 59.468 C 151.240 59.256,151.105 58.849,150.988 58.562 C 150.808 58.119,150.818 57.953,151.055 57.454 C 151.208 57.131,151.333 56.770,151.333 56.652 C 151.333 56.156,152.128 55.324,152.998 54.909 C 153.503 54.668,154.047 54.402,154.206 54.318 C 154.594 54.115,157.620 54.124,157.747 54.329 C 157.802 54.418,158.163 54.576,158.549 54.679 C 158.934 54.783,159.287 54.917,159.333 54.976 C 159.488 55.177,160.767 56.000,160.926 56.001 C 161.012 56.001,161.349 56.245,161.674 56.542 C 163.512 58.225,163.869 58.332,164.740 57.458 C 165.108 57.089,165.316 56.688,165.394 56.197 C 165.456 55.801,165.610 55.313,165.735 55.113 C 165.860 54.913,166.015 54.454,166.078 54.092 C 166.142 53.730,166.301 53.282,166.430 53.096 C 167.139 52.085,166.067 50.061,164.426 49.310 C 164.237 49.224,163.709 48.894,163.252 48.577 C 162.795 48.260,162.316 48.000,162.188 48.000 C 162.061 48.000,161.707 47.846,161.402 47.658 C 161.038 47.433,160.430 47.282,159.632 47.218 C 158.964 47.165,158.342 47.066,158.250 46.999 C 158.018 46.829,156.984 46.692,156.583 46.778 M254.167 49.880 C 253.846 50.074,253.523 50.330,253.450 50.450 C 253.377 50.569,253.249 50.667,253.166 50.667 C 252.991 50.667,252.148 51.224,251.224 51.951 C 250.872 52.228,250.348 52.575,250.060 52.722 C 249.336 53.092,249.167 53.713,249.167 56.006 L 249.167 57.962 247.430 58.026 C 244.942 58.119,244.717 58.357,244.511 61.136 C 244.439 62.115,244.282 63.147,244.164 63.429 C 243.570 64.845,244.363 65.396,247.110 65.475 L 249.152 65.534 249.201 73.725 L 249.250 81.917 249.709 82.750 C 250.826 84.778,252.663 86.428,254.164 86.752 C 254.484 86.821,254.922 86.993,255.139 87.135 C 255.696 87.500,259.478 87.495,260.038 87.128 C 260.250 86.989,260.760 86.822,261.170 86.756 C 263.104 86.445,263.500 85.755,263.499 82.697 C 263.498 79.431,262.998 78.193,261.956 78.876 C 261.748 79.012,261.317 79.178,260.998 79.245 C 260.678 79.311,260.229 79.485,260.000 79.631 C 259.741 79.796,259.073 79.924,258.236 79.968 L 256.889 80.039 256.528 79.427 C 256.174 78.826,256.167 78.686,256.167 72.157 L 256.167 65.500 258.708 65.499 C 262.901 65.498,262.906 65.492,262.805 61.427 C 262.719 58.024,262.693 58.002,258.634 58.001 L 256.184 58.000 256.134 54.180 C 256.071 49.458,255.810 48.887,254.167 49.880 M273.597 49.645 C 273.548 49.724,273.205 49.838,272.835 49.897 C 271.180 50.162,270.428 51.504,270.529 54.015 L 270.595 55.662 271.256 56.351 C 272.150 57.282,272.734 57.500,274.338 57.500 C 275.763 57.500,276.004 57.723,274.791 57.918 C 274.402 57.981,273.932 58.128,273.746 58.245 C 273.561 58.362,273.092 58.511,272.705 58.577 C 272.318 58.642,271.832 58.833,271.625 59.000 L 271.250 59.304 271.250 72.805 L 271.250 86.306 271.654 86.737 C 272.086 87.197,272.334 87.257,272.794 87.014 C 272.953 86.929,273.758 86.788,274.583 86.699 C 276.356 86.509,277.596 86.096,277.932 85.583 C 278.140 85.266,278.168 83.273,278.129 71.549 C 278.079 56.682,278.124 57.333,277.146 57.333 C 276.533 57.333,276.543 57.265,277.248 56.646 C 277.609 56.329,277.900 55.873,278.016 55.443 C 278.119 55.062,278.279 54.588,278.372 54.390 C 279.008 53.031,277.650 50.417,276.083 49.986 C 275.717 49.885,275.286 49.734,275.127 49.651 C 274.759 49.459,273.715 49.454,273.597 49.645 M188.000 57.526 C 187.679 57.618,186.828 57.760,186.107 57.843 C 185.345 57.931,184.579 58.129,184.274 58.315 C 183.453 58.818,182.982 58.805,182.443 58.263 L 181.970 57.788 180.122 57.905 C 179.070 57.971,178.076 58.125,177.812 58.261 C 177.558 58.392,177.193 58.500,177.001 58.500 C 176.809 58.500,176.466 58.685,176.240 58.911 L 175.829 59.322 175.873 78.072 C 175.923 99.628,175.726 97.447,177.620 97.374 C 178.229 97.351,178.883 97.231,179.072 97.108 C 179.262 96.985,179.979 96.842,180.667 96.789 C 182.891 96.619,182.831 96.788,182.832 90.708 C 182.833 85.900,182.909 85.504,183.655 86.402 C 183.762 86.532,184.240 86.691,184.717 86.755 C 185.193 86.820,185.808 86.988,186.083 87.130 C 186.797 87.497,191.197 87.499,191.917 87.133 C 192.192 86.992,192.717 86.824,193.083 86.758 C 193.450 86.692,193.984 86.495,194.270 86.319 C 194.555 86.144,194.905 86.000,195.046 86.000 C 195.188 86.000,195.683 85.700,196.147 85.333 C 196.611 84.967,197.036 84.667,197.092 84.667 C 197.488 84.667,199.449 82.653,200.333 81.340 C 200.471 81.136,200.752 80.736,200.958 80.452 C 201.165 80.168,201.333 79.830,201.333 79.702 C 201.333 79.574,201.483 79.279,201.667 79.045 C 201.850 78.812,202.000 78.499,202.000 78.350 C 202.000 78.201,202.153 77.793,202.339 77.445 C 202.562 77.030,202.713 76.342,202.779 75.448 C 202.834 74.697,202.959 73.982,203.057 73.858 C 203.281 73.575,203.273 71.416,203.047 71.129 C 202.954 71.012,202.835 70.259,202.781 69.456 C 202.726 68.640,202.571 67.794,202.429 67.539 C 202.290 67.288,202.099 66.773,202.004 66.394 C 201.909 66.016,201.719 65.613,201.582 65.499 C 201.445 65.385,201.333 65.162,201.333 65.002 C 201.333 64.842,201.202 64.532,201.042 64.312 C 200.881 64.093,200.675 63.794,200.583 63.648 C 199.554 62.012,198.033 60.470,197.042 60.055 C 196.744 59.931,196.500 59.761,196.500 59.677 C 196.500 59.594,196.243 59.441,195.930 59.338 C 195.616 59.234,195.270 59.041,195.160 58.908 C 195.049 58.775,194.808 58.667,194.624 58.667 C 194.440 58.667,194.041 58.513,193.738 58.326 C 193.341 58.080,192.777 57.958,191.718 57.887 C 190.911 57.832,190.175 57.732,190.083 57.663 C 189.780 57.435,188.593 57.358,188.000 57.526 M224.750 57.441 C 224.567 57.483,224.267 57.582,224.083 57.662 C 223.900 57.742,223.171 57.849,222.462 57.901 C 221.643 57.961,220.947 58.117,220.548 58.331 C 220.204 58.516,219.806 58.667,219.665 58.667 C 219.523 58.667,219.231 58.790,219.015 58.942 C 218.799 59.093,218.276 59.399,217.853 59.622 C 217.430 59.844,216.933 60.171,216.750 60.347 C 216.567 60.523,216.079 60.986,215.667 61.376 C 214.714 62.276,213.333 63.901,213.333 64.120 C 213.333 64.213,213.194 64.467,213.023 64.686 C 212.852 64.904,212.656 65.271,212.587 65.500 C 212.517 65.729,212.365 66.029,212.249 66.167 C 212.132 66.304,211.981 66.678,211.913 66.998 C 211.845 67.317,211.668 67.764,211.520 67.990 C 211.109 68.617,211.116 76.483,211.528 76.941 C 211.680 77.111,211.856 77.550,211.918 77.917 C 211.980 78.283,212.174 78.787,212.349 79.035 C 212.524 79.283,212.667 79.595,212.667 79.728 C 212.667 79.861,212.948 80.333,213.293 80.777 C 213.637 81.220,214.139 81.909,214.410 82.308 C 214.880 83.001,216.038 84.069,217.067 84.759 C 217.332 84.938,217.745 85.214,217.983 85.373 C 218.222 85.533,218.604 85.745,218.833 85.845 C 219.063 85.946,219.524 86.169,219.858 86.342 C 220.193 86.516,220.793 86.707,221.192 86.769 C 221.590 86.830,222.142 86.994,222.417 87.133 C 222.796 87.326,223.499 87.387,225.333 87.387 C 227.167 87.387,227.871 87.326,228.250 87.133 C 228.525 86.994,229.076 86.830,229.475 86.769 C 229.874 86.707,230.474 86.516,230.808 86.342 C 231.143 86.169,231.604 85.946,231.833 85.845 C 232.805 85.420,234.831 83.946,235.671 83.052 C 236.566 82.100,238.000 79.998,238.000 79.639 C 238.000 79.499,238.150 79.249,238.333 79.083 C 238.517 78.917,238.667 78.623,238.667 78.430 C 238.667 78.237,238.819 77.793,239.006 77.445 C 239.229 77.030,239.380 76.342,239.445 75.448 C 239.501 74.697,239.600 74.008,239.667 73.917 C 239.905 73.588,239.984 72.405,239.811 71.750 C 239.714 71.383,239.571 70.428,239.494 69.627 C 239.418 68.826,239.240 67.964,239.099 67.711 C 238.958 67.457,238.765 66.940,238.670 66.561 C 238.575 66.182,238.386 65.779,238.249 65.666 C 238.112 65.552,238.000 65.359,238.000 65.237 C 238.000 65.026,237.508 64.209,236.873 63.365 C 236.576 62.970,234.513 60.846,233.917 60.320 C 233.733 60.159,233.237 59.844,232.814 59.622 C 232.391 59.399,231.868 59.093,231.652 58.942 C 231.436 58.790,231.143 58.667,231.002 58.667 C 230.861 58.667,230.450 58.509,230.090 58.315 C 229.644 58.076,229.004 57.936,228.092 57.877 C 227.354 57.829,226.675 57.733,226.583 57.664 C 226.357 57.492,225.161 57.347,224.750 57.441 M297.931 57.643 C 297.883 57.722,297.409 57.826,296.878 57.874 C 296.229 57.932,295.614 58.130,294.999 58.477 C 294.495 58.761,293.802 59.146,293.458 59.333 L 292.833 59.673 292.833 59.162 C 292.833 57.743,290.013 57.366,287.167 58.406 C 285.715 58.937,285.833 57.667,285.833 72.693 L 285.833 86.015 286.266 86.448 C 286.751 86.933,289.338 86.925,290.309 86.435 C 290.551 86.313,291.079 86.171,291.481 86.119 C 292.816 85.948,292.739 86.412,292.841 77.953 C 292.942 69.628,292.947 69.588,294.071 68.048 C 294.353 67.663,294.771 67.081,295.000 66.756 C 295.229 66.432,295.792 65.924,296.250 65.628 C 296.708 65.332,297.108 65.032,297.139 64.961 C 297.306 64.577,298.168 64.903,299.231 65.751 C 300.351 66.645,301.098 66.895,301.584 66.539 C 301.896 66.311,302.667 65.067,302.667 64.793 C 302.667 64.642,302.736 64.477,302.822 64.424 C 303.546 63.976,304.332 61.256,304.015 60.295 C 303.840 59.764,302.730 58.667,302.369 58.667 C 302.286 58.667,302.087 58.521,301.926 58.343 C 301.740 58.138,301.302 57.978,300.731 57.907 C 300.235 57.845,299.788 57.728,299.738 57.647 C 299.621 57.458,298.048 57.454,297.931 57.643 M355.107 57.628 C 355.054 57.714,354.273 57.825,353.371 57.875 C 352.150 57.942,351.563 58.055,351.076 58.316 C 350.716 58.509,350.301 58.667,350.153 58.667 C 350.005 58.667,349.711 58.817,349.500 59.000 C 349.289 59.183,349.020 59.333,348.902 59.333 C 348.563 59.333,346.323 61.191,345.500 62.155 C 345.087 62.638,344.620 63.175,344.460 63.348 C 344.027 63.819,342.725 66.356,342.581 67.008 C 342.513 67.322,342.335 67.764,342.186 67.990 C 341.776 68.617,341.784 76.396,342.196 77.025 C 342.350 77.259,342.530 77.743,342.595 78.101 C 342.661 78.458,342.854 78.929,343.024 79.147 C 343.194 79.366,343.333 79.686,343.333 79.857 C 343.333 80.029,343.483 80.298,343.667 80.455 C 343.850 80.612,344.000 80.830,344.000 80.939 C 344.000 81.648,347.695 85.333,348.406 85.333 C 348.521 85.333,348.751 85.483,348.917 85.667 C 349.083 85.850,349.338 86.000,349.484 86.001 C 349.630 86.002,349.972 86.148,350.242 86.327 C 350.513 86.505,351.150 86.703,351.659 86.766 C 352.167 86.830,352.751 86.991,352.956 87.125 C 353.496 87.478,358.396 87.480,359.093 87.127 C 359.363 86.990,359.988 86.827,360.483 86.764 C 360.977 86.700,361.652 86.509,361.983 86.339 C 362.313 86.168,363.012 85.828,363.535 85.581 C 364.058 85.335,364.574 85.029,364.680 84.900 C 364.787 84.772,364.977 84.667,365.104 84.667 C 365.615 84.667,366.000 84.022,366.000 83.166 C 366.000 82.651,365.873 82.095,365.667 81.710 C 365.483 81.368,365.333 80.956,365.333 80.794 C 365.333 80.631,365.183 80.219,365.000 79.877 C 364.817 79.535,364.667 79.097,364.667 78.903 C 364.667 77.758,362.717 77.394,361.583 78.328 C 361.400 78.480,361.063 78.692,360.833 78.800 C 360.604 78.909,360.304 79.062,360.167 79.141 C 358.907 79.864,358.635 79.917,356.180 79.914 C 353.496 79.910,353.373 79.872,351.698 78.535 C 350.619 77.673,349.350 75.548,349.338 74.583 C 349.334 74.308,349.219 73.869,349.082 73.606 C 348.772 73.010,348.761 71.959,349.060 71.367 C 349.185 71.119,349.328 70.599,349.377 70.211 C 349.576 68.654,351.905 65.664,353.110 65.417 C 353.370 65.364,353.796 65.211,354.055 65.077 C 354.713 64.737,357.787 64.746,358.240 65.089 C 358.418 65.223,358.689 65.333,358.843 65.333 C 359.171 65.333,361.923 66.712,362.330 67.080 C 363.065 67.745,364.487 66.759,364.740 65.409 C 364.807 65.056,364.967 64.615,365.097 64.430 C 365.227 64.244,365.333 63.977,365.333 63.835 C 365.333 63.694,365.483 63.299,365.667 62.956 C 366.515 61.373,366.061 60.430,364.000 59.495 C 363.771 59.391,363.321 59.171,363.000 59.007 C 362.679 58.843,362.155 58.652,361.836 58.582 C 361.516 58.513,361.095 58.352,360.900 58.224 C 360.586 58.018,359.806 57.909,356.143 57.562 C 355.626 57.512,355.160 57.542,355.107 57.628 M322.750 58.105 C 322.567 58.148,322.267 58.249,322.083 58.329 C 321.900 58.409,321.171 58.516,320.462 58.568 C 319.643 58.628,318.947 58.784,318.548 58.998 C 318.204 59.182,317.799 59.333,317.650 59.333 C 317.501 59.333,317.188 59.483,316.955 59.667 C 316.721 59.850,316.456 60.000,316.364 60.000 C 315.832 60.000,312.283 63.370,312.063 64.083 C 312.007 64.267,311.859 64.533,311.735 64.674 C 311.357 65.107,310.713 66.412,310.581 67.012 C 310.512 67.323,310.335 67.764,310.186 67.990 C 309.956 68.343,309.917 69.017,309.917 72.667 C 309.917 76.316,309.956 76.991,310.186 77.343 C 310.335 77.570,310.513 78.013,310.582 78.328 C 310.652 78.644,310.922 79.280,311.184 79.743 C 311.446 80.205,311.822 80.883,312.019 81.250 C 312.433 82.019,315.726 85.333,316.076 85.333 C 316.204 85.333,316.409 85.428,316.530 85.544 C 316.818 85.820,318.475 86.667,318.726 86.667 C 318.834 86.667,319.220 86.832,319.586 87.035 C 320.358 87.462,325.975 87.691,327.583 87.361 C 329.240 87.020,333.167 85.341,333.167 84.973 C 333.167 84.906,333.340 84.754,333.552 84.634 C 335.474 83.551,335.501 83.479,335.490 79.583 C 335.475 74.530,334.849 74.277,330.839 77.705 C 330.403 78.078,329.489 78.667,329.346 78.667 C 329.270 78.667,329.116 78.777,329.003 78.913 C 328.740 79.230,327.115 80.000,326.709 80.000 C 326.537 80.000,326.251 80.110,326.074 80.245 C 325.852 80.413,325.331 80.489,324.417 80.489 C 323.502 80.489,322.982 80.413,322.760 80.245 C 322.582 80.110,322.267 80.000,322.060 80.000 C 320.383 80.000,316.748 76.193,318.393 76.159 C 318.589 76.155,319.050 76.037,319.417 75.896 C 319.783 75.755,320.481 75.539,320.967 75.416 C 321.454 75.293,321.941 75.118,322.051 75.028 C 322.160 74.937,322.550 74.809,322.917 74.743 C 323.283 74.676,323.771 74.530,324.000 74.417 C 324.229 74.304,324.811 74.119,325.292 74.006 C 325.774 73.892,326.205 73.739,326.251 73.664 C 326.297 73.590,326.653 73.478,327.043 73.415 C 327.432 73.353,327.908 73.201,328.101 73.079 C 328.293 72.957,328.743 72.806,329.101 72.743 C 329.458 72.681,329.902 72.535,330.087 72.419 C 330.272 72.303,330.760 72.155,331.170 72.088 C 331.581 72.022,332.068 71.873,332.252 71.756 C 332.437 71.639,332.850 71.491,333.169 71.427 C 334.004 71.260,335.782 70.375,335.900 70.068 C 336.074 69.614,336.009 68.754,335.775 68.412 C 335.651 68.231,335.501 67.717,335.441 67.268 C 335.382 66.820,335.192 66.145,335.019 65.768 C 334.846 65.392,334.618 64.896,334.512 64.667 C 333.972 63.495,332.930 62.101,332.063 61.391 C 331.063 60.572,329.143 59.336,328.868 59.334 C 328.750 59.334,328.350 59.178,327.979 58.989 C 327.578 58.785,326.819 58.606,326.110 58.550 C 325.454 58.498,324.842 58.397,324.750 58.326 C 324.529 58.156,323.171 58.006,322.750 58.105 M190.240 65.089 C 190.418 65.223,190.695 65.333,190.856 65.333 C 192.299 65.333,195.333 68.637,195.333 70.208 C 195.333 70.425,195.443 70.749,195.578 70.926 C 195.746 71.148,195.823 71.669,195.823 72.583 C 195.823 73.498,195.746 74.018,195.578 74.240 C 195.443 74.418,195.333 74.719,195.333 74.909 C 195.333 76.063,192.392 79.330,191.350 79.334 C 191.203 79.335,190.869 79.447,190.606 79.584 C 189.945 79.929,186.885 79.924,186.426 79.578 C 186.249 79.443,185.971 79.333,185.811 79.333 C 185.424 79.333,183.333 77.233,183.333 76.844 C 183.333 76.677,183.221 76.447,183.083 76.333 C 182.786 76.087,182.704 68.933,182.995 68.753 C 183.085 68.698,183.234 68.369,183.327 68.022 C 183.602 67.003,185.561 65.333,186.481 65.333 C 186.668 65.333,186.917 65.224,187.035 65.090 C 187.336 64.748,189.789 64.748,190.240 65.089 M227.240 65.089 C 227.418 65.223,227.658 65.333,227.773 65.333 C 228.430 65.333,231.333 67.927,231.333 68.514 C 231.333 68.677,231.440 68.917,231.571 69.047 C 231.702 69.178,231.861 69.577,231.923 69.934 C 231.986 70.291,232.141 70.749,232.269 70.952 C 232.584 71.456,232.568 73.479,232.245 73.907 C 232.110 74.085,232.000 74.408,232.000 74.626 C 232.000 75.906,229.780 78.672,228.082 79.507 C 226.992 80.043,223.703 80.120,223.005 79.625 C 222.778 79.465,222.478 79.333,222.338 79.331 C 221.377 79.325,218.944 75.951,218.665 74.240 C 218.579 73.709,218.431 73.198,218.337 73.104 C 218.243 73.010,218.167 72.738,218.167 72.500 C 218.167 72.262,218.243 71.990,218.337 71.896 C 218.431 71.802,218.579 71.291,218.665 70.760 C 218.983 68.807,220.440 66.638,221.917 65.917 C 222.192 65.783,222.529 65.609,222.667 65.530 C 223.711 64.933,223.992 64.863,225.417 64.854 C 226.490 64.847,227.009 64.914,227.240 65.089 M325.440 65.848 C 326.107 66.260,326.055 66.422,325.210 66.577 C 324.865 66.640,324.426 66.793,324.233 66.917 C 324.040 67.041,323.590 67.194,323.233 67.257 C 322.876 67.319,322.432 67.465,322.248 67.580 C 322.063 67.695,321.650 67.844,321.331 67.911 C 321.011 67.978,320.592 68.132,320.399 68.254 C 320.207 68.376,319.757 68.527,319.399 68.590 C 319.042 68.653,318.575 68.814,318.361 68.949 C 317.741 69.338,317.747 69.081,318.378 68.132 C 319.895 65.848,323.535 64.670,325.440 65.848 M53.533 106.867 C 53.384 107.016,53.333 108.819,53.333 113.950 L 53.333 120.833 60.000 120.833 L 66.667 120.833 66.667 113.950 C 66.667 108.819,66.616 107.016,66.467 106.867 C 66.318 106.718,64.652 106.667,60.000 106.667 C 55.348 106.667,53.682 106.718,53.533 106.867 " stroke="none" fill="#24a46c" fill-rule="evenodd" />
    </g>
</svg>
