<?xml version="1.0" encoding="UTF-8"?>
<svg xmlns="http://www.w3.org/2000/svg" xmlns:xlink="http://www.w3.org/1999/xlink" id="svg" version="1.1" width="400" height="133.33333333333334" viewBox="0, 0, 400,133.33333333333334">
    <g id="svgg">
        <path id="path0" d="M40.077 12.873 C 40.032 12.989,40.016 16.121,40.040 19.834 L 40.083 26.583 46.707 26.627 L 53.331 26.670 53.374 39.960 L 53.417 53.250 60.040 53.294 L 66.663 53.337 66.706 59.960 L 66.750 66.583 73.333 66.667 L 79.917 66.750 79.917 80.000 L 79.917 93.250 59.956 93.292 L 39.996 93.335 40.040 86.709 L 40.083 80.083 46.667 80.000 L 53.250 79.917 53.250 73.333 L 53.250 66.750 33.000 66.750 L 12.750 66.750 12.750 73.333 L 12.750 79.917 19.667 80.000 L 26.583 80.083 26.627 86.707 L 26.670 93.330 19.710 93.373 L 12.750 93.417 12.711 106.783 C 12.677 118.561,12.703 120.179,12.926 120.402 C 13.146 120.622,14.071 120.651,19.882 120.620 L 26.583 120.583 26.626 106.958 L 26.669 93.333 33.333 93.333 L 39.998 93.333 40.041 106.958 L 40.083 120.583 46.667 120.583 L 53.250 120.583 53.333 113.667 L 53.417 106.750 60.000 106.750 L 66.583 106.750 66.667 113.667 L 66.750 120.583 73.333 120.583 L 79.917 120.583 80.000 113.667 L 80.083 106.750 86.707 106.706 L 93.330 106.663 93.373 113.623 L 93.417 120.583 100.000 120.583 L 106.583 120.583 106.627 113.627 L 106.670 106.670 113.627 106.627 L 120.583 106.583 120.583 93.333 L 120.583 80.083 113.667 80.083 L 106.750 80.083 106.707 93.375 L 106.665 106.667 100.000 106.667 L 93.334 106.667 93.292 80.042 L 93.250 53.417 79.959 53.374 L 66.669 53.331 66.626 40.041 L 66.583 26.750 59.960 26.706 L 53.337 26.663 53.293 19.706 L 53.250 12.750 46.704 12.706 C 41.553 12.672,40.140 12.708,40.077 12.873 M12.744 26.873 C 12.700 26.989,12.683 32.971,12.707 40.167 L 12.750 53.250 26.333 53.250 L 39.917 53.250 39.917 46.667 L 39.917 40.083 33.333 40.000 L 26.750 39.917 26.667 33.333 L 26.583 26.750 19.704 26.706 C 14.289 26.672,12.807 26.708,12.744 26.873 M106.743 26.874 C 106.699 26.989,106.682 29.972,106.706 33.500 L 106.750 39.917 113.667 39.917 L 120.583 39.917 120.583 33.333 L 120.583 26.750 113.704 26.706 C 108.282 26.672,106.807 26.708,106.743 26.874 " stroke="none" fill="#cccccc" fill-rule="evenodd" />
        <path id="path1" d="M12.929 12.929 C 12.699 13.158,12.667 14.029,12.667 19.970 L 12.667 26.750 19.625 26.750 L 26.583 26.750 26.667 33.333 L 26.750 39.917 33.333 40.000 L 39.917 40.083 39.917 46.667 L 39.917 53.250 26.292 53.250 L 12.667 53.250 12.667 60.000 L 12.667 66.750 32.958 66.750 L 53.250 66.750 53.250 73.333 L 53.250 79.917 46.667 80.000 L 40.083 80.083 40.040 86.708 L 39.996 93.333 33.333 93.333 L 26.670 93.333 26.627 86.708 L 26.583 80.083 19.625 80.000 L 12.667 79.917 12.667 86.667 L 12.667 93.417 19.669 93.371 L 26.671 93.326 26.627 106.996 L 26.583 120.667 33.333 120.667 L 40.083 120.667 40.040 107.001 L 39.996 93.335 59.956 93.292 L 79.917 93.250 79.917 80.000 L 79.917 66.750 73.333 66.667 L 66.750 66.583 66.706 59.957 L 66.663 53.331 79.956 53.374 L 93.250 53.417 93.292 80.040 L 93.334 106.663 86.709 106.706 L 80.083 106.750 80.000 113.708 L 79.917 120.667 86.667 120.667 L 93.417 120.667 93.371 113.667 L 93.326 106.667 100.000 106.667 L 106.674 106.667 106.629 113.667 L 106.583 120.667 113.363 120.667 C 119.304 120.667,120.175 120.634,120.405 120.405 C 120.634 120.175,120.667 119.304,120.667 113.363 L 120.667 106.583 113.666 106.629 L 106.665 106.674 106.707 93.379 L 106.750 80.083 113.708 80.083 L 120.667 80.083 120.667 60.000 L 120.667 39.917 113.708 39.917 L 106.750 39.917 106.750 33.333 L 106.750 26.750 113.708 26.750 L 120.667 26.750 120.667 19.970 C 120.667 14.029,120.634 13.158,120.405 12.929 C 120.168 12.692,116.880 12.667,86.696 12.667 L 53.250 12.667 53.295 19.669 L 53.340 26.670 46.712 26.627 L 40.083 26.583 40.083 19.625 L 40.083 12.667 26.637 12.667 C 14.635 12.667,13.162 12.695,12.929 12.929 M66.626 40.044 L 66.669 53.337 60.043 53.294 L 53.417 53.250 53.374 39.956 L 53.331 26.663 59.957 26.706 L 66.583 26.750 66.626 40.044 M154.494 46.977 C 154.170 47.046,153.814 47.159,153.702 47.228 C 153.590 47.298,153.197 47.358,152.830 47.363 C 152.463 47.369,152.120 47.440,152.069 47.522 C 152.019 47.605,151.912 47.632,151.833 47.583 C 151.754 47.535,151.643 47.571,151.585 47.664 C 151.527 47.757,151.300 47.833,151.079 47.833 C 150.858 47.833,150.412 47.982,150.088 48.164 C 149.765 48.346,149.500 48.459,149.500 48.416 C 149.500 48.372,148.994 48.643,148.375 49.018 C 147.189 49.736,145.333 51.425,145.333 51.786 C 145.333 51.904,145.262 52.000,145.175 52.000 C 144.977 52.000,143.833 54.022,143.833 54.372 C 143.833 54.513,143.723 54.840,143.589 55.099 C 143.248 55.757,143.256 61.033,143.599 61.697 C 143.728 61.946,143.833 62.265,143.833 62.406 C 143.833 63.834,149.653 69.125,150.400 68.377 C 150.455 68.323,150.500 68.372,150.500 68.486 C 150.500 68.601,150.594 68.660,150.708 68.619 C 150.823 68.577,151.029 68.636,151.167 68.749 C 151.304 68.863,151.867 69.086,152.417 69.245 C 152.967 69.404,153.529 69.577,153.667 69.628 C 153.804 69.679,153.954 69.734,154.000 69.750 C 155.608 70.305,157.694 71.331,158.502 71.963 C 160.468 73.500,160.504 76.066,158.589 78.042 C 158.167 78.477,157.768 78.834,157.703 78.834 C 157.637 78.835,157.359 78.952,157.084 79.096 C 155.650 79.843,152.162 79.299,150.561 78.078 C 150.265 77.852,149.975 77.667,149.917 77.667 C 149.859 77.667,149.622 77.442,149.391 77.167 C 149.160 76.892,148.906 76.667,148.827 76.667 C 148.748 76.667,148.207 76.179,147.626 75.583 C 145.978 73.894,145.524 74.027,144.356 76.542 C 144.069 77.160,143.608 78.148,143.333 78.735 C 142.610 80.281,142.604 80.262,144.510 82.161 C 146.268 83.912,147.680 84.911,148.680 85.111 C 148.948 85.165,149.167 85.274,149.167 85.354 C 149.167 85.434,149.339 85.500,149.550 85.500 C 149.761 85.500,150.012 85.579,150.109 85.676 C 150.206 85.773,150.652 85.892,151.101 85.941 C 151.550 85.990,152.022 86.117,152.150 86.223 C 152.483 86.498,156.760 86.483,157.419 86.204 C 157.695 86.088,158.183 85.965,158.502 85.931 C 158.822 85.897,159.458 85.721,159.917 85.539 C 160.375 85.357,160.956 85.126,161.208 85.025 C 161.460 84.924,161.667 84.760,161.667 84.661 C 161.667 84.562,161.742 84.527,161.833 84.583 C 161.925 84.640,162.000 84.607,162.000 84.510 C 162.000 84.413,162.066 84.352,162.147 84.375 C 162.737 84.542,166.157 80.761,166.254 79.833 C 166.259 79.787,166.380 79.487,166.523 79.167 C 167.252 77.535,167.582 73.093,167.067 71.855 C 166.939 71.546,166.833 71.120,166.833 70.908 C 166.833 70.697,166.740 70.425,166.625 70.304 C 166.510 70.182,166.393 69.933,166.363 69.750 C 166.334 69.567,166.222 69.341,166.113 69.249 C 166.005 69.157,165.895 68.970,165.869 68.833 C 165.842 68.696,165.636 68.418,165.410 68.216 C 165.185 68.014,165.000 67.781,165.000 67.697 C 165.000 66.861,159.736 63.620,158.034 63.408 C 157.823 63.382,157.561 63.287,157.450 63.197 C 157.276 63.054,155.898 62.622,155.667 62.637 C 155.621 62.640,155.349 62.498,155.064 62.321 C 154.778 62.145,154.384 62.000,154.189 62.000 C 153.993 62.000,153.833 61.940,153.833 61.867 C 153.833 61.793,153.491 61.567,153.073 61.364 C 152.297 60.987,150.592 59.519,150.748 59.363 C 150.796 59.316,150.736 59.121,150.615 58.930 C 149.855 57.729,150.957 55.335,152.682 54.441 C 155.479 52.989,158.794 53.866,162.464 57.028 C 163.340 57.783,164.483 57.573,164.586 56.639 C 164.611 56.407,164.716 56.075,164.819 55.901 C 165.071 55.472,165.850 53.337,165.914 52.896 C 165.943 52.701,166.051 52.383,166.155 52.189 C 166.549 51.452,163.608 48.409,162.602 48.513 C 162.521 48.522,162.408 48.463,162.352 48.384 C 162.189 48.152,160.128 47.377,159.616 47.355 C 159.359 47.345,158.984 47.247,158.783 47.139 C 158.354 46.909,155.348 46.795,154.494 46.977 M252.159 50.033 C 251.472 50.519,250.362 51.289,249.692 51.745 C 248.563 52.512,248.129 52.955,248.184 53.285 C 248.196 53.357,248.197 54.329,248.186 55.444 L 248.167 57.471 246.327 57.527 C 244.918 57.570,244.450 57.642,244.330 57.833 C 244.243 57.971,244.169 58.008,244.167 57.917 C 244.148 57.307,243.838 58.420,243.836 59.104 C 243.834 59.574,243.732 60.249,243.607 60.604 C 243.297 61.492,243.277 63.525,243.574 63.932 C 243.778 64.211,244.074 64.257,245.986 64.308 L 248.167 64.367 248.196 71.642 C 248.212 75.643,248.207 79.195,248.185 79.536 C 248.116 80.614,249.116 82.612,250.335 83.831 C 251.207 84.703,251.898 85.129,253.417 85.735 C 254.262 86.071,258.746 86.030,259.667 85.676 C 262.192 84.708,261.983 85.079,261.983 81.555 C 261.983 77.813,261.811 77.545,259.948 78.394 C 259.472 78.610,258.896 78.844,258.667 78.914 C 258.438 78.984,258.156 79.116,258.041 79.208 C 257.809 79.394,255.805 79.438,255.522 79.264 C 254.945 78.907,254.833 77.546,254.833 70.845 L 254.833 64.250 257.380 64.299 C 259.979 64.350,261.301 64.143,261.208 63.699 C 261.185 63.590,261.242 63.500,261.333 63.500 C 261.561 63.500,261.551 59.030,261.323 58.374 C 261.048 57.585,260.560 57.477,257.529 57.533 L 254.833 57.583 254.833 53.562 C 254.833 49.216,254.844 49.268,253.912 49.191 C 253.531 49.160,253.101 49.366,252.159 50.033 M271.407 49.906 C 268.998 51.033,268.754 54.722,270.988 56.231 C 271.643 56.674,274.348 56.880,274.580 56.506 C 274.640 56.408,274.760 56.371,274.846 56.425 C 274.932 56.478,275.047 56.404,275.102 56.261 C 275.157 56.117,275.300 56.000,275.420 56.000 C 276.605 56.000,277.109 52.596,276.148 51.082 C 275.223 49.622,273.125 49.102,271.407 49.906 M275.167 56.959 C 275.167 57.034,274.933 57.114,274.648 57.135 C 274.363 57.157,273.993 57.248,273.826 57.337 C 273.659 57.427,273.385 57.500,273.217 57.500 C 273.049 57.500,272.640 57.646,272.307 57.824 C 271.975 58.002,271.659 58.104,271.606 58.050 C 271.552 57.996,271.382 58.057,271.228 58.185 C 271.075 58.312,270.904 58.401,270.849 58.383 C 270.795 58.364,270.581 58.476,270.375 58.631 L 270.000 58.912 270.003 72.165 C 270.004 79.453,270.070 85.520,270.150 85.645 C 270.359 85.976,271.541 86.029,272.348 85.745 C 272.730 85.610,273.389 85.497,273.813 85.494 C 274.237 85.491,274.767 85.386,274.992 85.262 C 275.216 85.138,275.498 85.074,275.618 85.120 C 275.738 85.166,276.022 85.081,276.249 84.932 L 276.663 84.662 276.663 71.066 C 276.663 63.208,276.599 57.351,276.511 57.187 C 276.356 56.898,275.167 56.697,275.167 56.959 M180.289 57.348 C 180.127 57.442,179.413 57.541,178.701 57.567 C 177.990 57.594,177.260 57.694,177.079 57.791 C 176.898 57.888,176.495 58.007,176.183 58.056 C 175.871 58.105,175.554 58.244,175.479 58.364 C 175.182 58.838,175.303 95.612,175.603 95.912 C 175.880 96.189,177.073 96.181,177.530 95.898 C 177.642 95.829,178.009 95.788,178.345 95.808 C 178.681 95.828,179.295 95.729,179.710 95.588 C 180.124 95.448,180.678 95.319,180.940 95.303 C 181.990 95.238,181.980 95.287,181.995 89.950 C 182.002 87.284,182.040 85.071,182.078 85.033 C 182.145 84.966,183.247 85.255,184.833 85.755 C 185.848 86.075,191.121 86.081,191.886 85.763 C 192.178 85.642,192.792 85.418,193.250 85.265 C 195.518 84.509,198.327 82.311,199.727 80.196 C 200.667 78.777,201.500 77.232,201.500 76.907 C 201.500 76.768,201.620 76.472,201.766 76.249 C 201.912 76.026,201.997 75.748,201.954 75.630 C 201.911 75.513,201.990 75.154,202.130 74.833 C 202.529 73.913,202.615 70.068,202.261 68.986 C 202.108 68.519,201.963 67.875,201.938 67.555 C 201.913 67.235,201.822 66.922,201.738 66.861 C 201.653 66.800,201.557 66.563,201.525 66.333 C 201.453 65.814,200.674 64.126,200.431 63.961 C 200.331 63.894,200.307 63.837,200.377 63.836 C 200.589 63.832,198.907 61.629,198.138 60.903 C 196.931 59.766,194.002 57.938,193.531 58.029 C 193.468 58.041,193.129 57.924,192.778 57.768 C 192.426 57.612,192.014 57.499,191.861 57.518 C 191.708 57.537,191.366 57.463,191.101 57.354 C 190.581 57.141,185.667 57.104,185.667 57.312 C 185.667 57.377,185.498 57.441,185.292 57.456 C 184.467 57.514,183.857 57.688,183.665 57.919 C 183.553 58.053,183.392 58.120,183.307 58.067 C 183.222 58.014,182.970 58.090,182.749 58.236 C 182.210 58.588,182.000 58.569,182.000 58.167 C 182.000 57.415,180.998 56.935,180.289 57.348 M221.754 57.374 C 221.582 57.471,221.110 57.563,220.706 57.580 C 220.302 57.597,219.913 57.705,219.842 57.820 C 219.771 57.934,219.665 58.022,219.606 58.014 C 219.548 58.006,219.481 58.006,219.458 58.014 C 219.435 58.022,219.241 58.047,219.026 58.070 C 218.812 58.094,218.578 58.207,218.508 58.321 C 218.437 58.435,218.348 58.503,218.309 58.473 C 218.192 58.379,216.833 59.041,216.833 59.192 C 216.833 59.270,216.736 59.333,216.616 59.333 C 215.514 59.333,211.270 64.150,211.036 65.667 C 211.029 65.712,210.936 65.975,210.829 66.250 C 210.215 67.829,210.117 68.494,210.057 71.500 C 210.012 73.796,210.054 74.754,210.223 75.250 C 210.347 75.617,210.545 76.217,210.662 76.583 C 211.194 78.251,212.702 80.829,213.347 81.174 C 213.523 81.268,213.667 81.417,213.667 81.506 C 213.667 81.681,214.271 82.333,214.433 82.333 C 214.488 82.333,214.741 82.540,214.996 82.792 C 216.378 84.159,218.676 85.353,220.667 85.739 C 220.713 85.748,220.831 85.806,220.929 85.869 C 221.299 86.105,227.020 85.996,227.629 85.742 C 227.947 85.609,228.349 85.500,228.523 85.500 C 228.696 85.500,228.968 85.430,229.127 85.345 C 229.286 85.259,229.923 84.953,230.542 84.664 C 231.160 84.375,231.667 84.070,231.667 83.986 C 231.667 83.902,231.738 83.833,231.825 83.833 C 232.403 83.833,235.667 80.802,235.667 80.265 C 235.667 80.139,235.767 79.997,235.890 79.950 C 236.166 79.844,237.448 77.403,237.526 76.833 C 237.558 76.604,237.654 76.366,237.740 76.304 C 237.826 76.242,237.912 75.956,237.932 75.669 C 237.952 75.381,238.069 74.907,238.192 74.615 C 238.496 73.896,238.509 69.162,238.209 68.800 C 238.094 68.662,237.987 68.332,237.970 68.066 C 237.953 67.801,237.859 67.478,237.761 67.349 C 237.663 67.221,237.608 67.108,237.639 67.099 C 237.947 67.010,236.383 63.767,235.656 62.988 C 235.387 62.700,235.167 62.404,235.167 62.329 C 235.167 62.126,232.290 59.500,232.067 59.500 C 231.961 59.500,231.781 59.388,231.668 59.252 C 231.555 59.115,231.396 59.045,231.314 59.095 C 231.233 59.145,231.167 59.116,231.167 59.029 C 231.167 58.895,230.944 58.795,230.371 58.669 C 230.305 58.655,230.137 58.542,230.000 58.418 C 229.862 58.294,229.525 58.139,229.250 58.073 C 228.975 58.008,228.661 57.884,228.553 57.799 C 228.445 57.714,228.032 57.618,227.636 57.585 C 227.240 57.552,226.699 57.442,226.434 57.341 C 225.832 57.111,222.179 57.137,221.754 57.374 M295.500 57.333 C 295.362 57.422,295.065 57.496,294.838 57.497 C 294.381 57.500,292.197 58.542,291.720 58.985 C 291.047 59.611,290.833 59.551,290.833 58.738 C 290.833 57.756,290.396 57.237,289.718 57.415 C 289.461 57.482,288.688 57.553,288.000 57.573 C 287.313 57.592,286.585 57.696,286.384 57.805 C 286.183 57.913,285.710 58.014,285.333 58.029 C 284.096 58.077,284.171 57.178,284.171 72.000 C 284.171 86.727,284.115 86.000,285.238 86.000 C 285.543 86.000,286.100 85.891,286.478 85.758 C 286.856 85.624,287.521 85.500,287.957 85.482 C 288.393 85.463,288.888 85.379,289.057 85.293 C 289.225 85.208,289.630 85.114,289.955 85.084 C 290.841 85.002,290.828 85.115,290.831 77.295 C 290.833 69.630,290.840 69.553,291.606 68.125 C 291.741 67.873,291.792 67.666,291.718 67.664 C 291.644 67.663,291.658 67.606,291.750 67.539 C 292.044 67.323,293.269 65.760,293.381 65.458 C 293.441 65.298,293.595 65.167,293.724 65.167 C 293.854 65.167,294.062 65.042,294.188 64.890 C 295.094 63.792,296.521 63.844,297.652 65.017 C 298.705 66.109,299.479 66.171,300.047 65.208 C 300.249 64.865,300.391 64.554,300.360 64.519 C 300.330 64.483,300.373 64.408,300.456 64.352 C 301.224 63.835,302.597 59.970,302.083 59.773 C 301.946 59.720,301.833 59.562,301.833 59.422 C 301.833 59.282,301.766 59.167,301.684 59.167 C 301.602 59.167,301.294 58.942,301.000 58.667 C 299.690 57.443,296.519 56.675,295.500 57.333 M320.305 57.411 C 319.877 57.529,319.330 57.588,319.091 57.542 C 318.851 57.496,318.302 57.597,317.869 57.765 C 317.437 57.934,317.024 58.055,316.952 58.034 C 316.724 57.968,314.358 59.189,313.911 59.603 C 313.676 59.821,313.425 60.000,313.355 60.000 C 312.884 60.000,310.576 62.597,310.117 63.641 C 310.011 63.884,309.876 64.121,309.818 64.167 C 309.692 64.267,309.157 65.293,309.167 65.417 C 309.170 65.464,309.063 65.717,308.929 65.977 C 308.794 66.237,308.686 66.593,308.690 66.767 C 308.693 66.941,308.584 67.383,308.447 67.750 C 308.120 68.626,308.130 74.971,308.459 75.367 C 308.574 75.505,308.700 75.836,308.739 76.101 C 309.035 78.104,311.396 81.707,313.225 82.947 C 313.605 83.205,313.956 83.468,314.004 83.531 C 314.225 83.825,316.107 84.911,316.290 84.851 C 316.313 84.844,316.596 84.987,316.921 85.169 C 317.245 85.351,317.662 85.500,317.847 85.500 C 318.032 85.500,318.401 85.613,318.667 85.750 C 319.245 86.049,325.589 86.046,325.798 85.746 C 325.863 85.653,326.166 85.553,326.471 85.524 C 326.776 85.496,327.301 85.352,327.638 85.205 C 327.975 85.057,328.287 84.926,328.333 84.912 C 328.964 84.727,331.763 83.080,331.955 82.782 C 332.026 82.673,332.233 82.501,332.417 82.400 C 333.071 82.041,333.162 81.552,333.164 78.386 C 333.168 74.226,332.602 73.375,330.927 75.020 C 330.738 75.205,329.796 75.921,328.834 76.609 C 327.873 77.298,327.030 77.949,326.962 78.056 C 326.894 78.163,326.837 78.185,326.836 78.106 C 326.834 78.027,326.665 78.070,326.458 78.203 C 325.010 79.138,321.338 79.765,320.613 79.202 C 320.505 79.118,320.006 78.907,319.503 78.733 C 319.001 78.559,318.454 78.282,318.288 78.118 C 318.122 77.954,317.800 77.749,317.572 77.663 C 317.345 77.576,317.109 77.373,317.050 77.211 C 316.990 77.049,316.893 76.879,316.834 76.833 C 316.518 76.586,315.664 75.140,315.751 74.999 C 315.807 74.908,316.069 74.833,316.333 74.833 C 316.598 74.833,316.860 74.758,316.917 74.667 C 316.973 74.575,317.185 74.500,317.387 74.500 C 317.590 74.500,318.027 74.354,318.359 74.176 C 318.692 73.998,319.003 73.892,319.052 73.940 C 319.100 73.989,319.389 73.921,319.695 73.789 C 320.502 73.440,322.851 72.668,323.311 72.600 C 323.527 72.568,323.752 72.476,323.811 72.396 C 323.869 72.316,324.067 72.230,324.250 72.204 C 324.822 72.126,326.409 71.631,326.575 71.479 C 326.662 71.399,326.903 71.333,327.111 71.333 C 327.319 71.333,327.735 71.227,328.036 71.097 C 328.337 70.967,329.033 70.730,329.583 70.571 C 330.133 70.411,330.739 70.180,330.930 70.056 C 331.121 69.933,331.325 69.881,331.384 69.940 C 331.443 69.999,331.606 69.953,331.746 69.837 C 331.886 69.721,332.000 69.675,332.000 69.735 C 332.000 69.796,332.155 69.762,332.344 69.661 C 332.533 69.560,332.841 69.447,333.028 69.411 C 333.670 69.288,333.868 68.982,333.774 68.259 C 333.445 65.726,333.171 64.923,331.798 62.466 C 330.910 60.876,327.031 58.000,325.775 58.000 C 325.652 58.000,325.310 57.880,325.015 57.733 C 324.712 57.581,324.252 57.499,323.956 57.542 C 323.668 57.584,323.054 57.518,322.591 57.395 C 321.589 57.128,321.326 57.130,320.305 57.411 M351.760 57.361 C 351.583 57.466,351.174 57.542,350.853 57.530 C 350.532 57.518,350.047 57.618,349.776 57.754 C 349.504 57.889,349.214 58.000,349.130 58.000 C 348.864 58.000,347.202 58.808,347.088 58.993 C 347.027 59.091,346.725 59.277,346.418 59.405 C 345.766 59.678,343.167 62.103,343.167 62.439 C 343.167 62.564,343.100 62.667,343.019 62.667 C 342.868 62.667,341.747 64.513,341.348 65.417 C 341.227 65.692,341.057 66.054,340.971 66.221 C 340.885 66.388,340.780 66.794,340.738 67.123 C 340.696 67.453,340.569 67.833,340.456 67.970 C 340.129 68.363,340.117 74.367,340.441 75.242 C 340.579 75.613,340.692 76.029,340.692 76.167 C 340.693 76.547,341.692 78.892,341.942 79.100 C 342.063 79.201,342.123 79.322,342.075 79.369 C 341.806 79.639,345.280 83.583,345.786 83.583 C 345.852 83.583,346.071 83.733,346.272 83.917 C 346.937 84.522,349.016 85.476,349.792 85.532 C 350.090 85.553,350.333 85.634,350.333 85.712 C 350.333 85.790,350.403 85.810,350.488 85.757 C 350.574 85.704,350.687 85.732,350.741 85.818 C 350.917 86.103,357.135 86.030,358.083 85.732 C 358.542 85.588,359.179 85.395,359.500 85.304 C 360.363 85.057,362.833 83.823,362.833 83.639 C 362.833 83.552,362.894 83.518,362.968 83.564 C 363.810 84.084,364.206 81.372,363.416 80.499 C 363.279 80.347,363.207 80.182,363.257 80.132 C 363.307 80.082,363.238 79.788,363.104 79.479 C 362.970 79.170,362.695 78.485,362.493 77.956 C 362.046 76.785,361.684 76.634,360.588 77.165 C 360.173 77.365,359.833 77.611,359.833 77.709 C 359.833 77.808,359.788 77.843,359.732 77.787 C 359.676 77.731,359.357 77.858,359.023 78.068 C 355.981 79.989,351.892 79.771,349.505 77.561 C 348.575 76.701,347.035 74.187,347.284 73.938 C 347.337 73.885,347.253 73.392,347.099 72.841 C 346.814 71.825,346.796 70.671,347.064 70.477 C 347.145 70.418,347.232 70.080,347.257 69.727 C 347.374 68.104,349.335 65.483,350.984 64.746 C 351.314 64.598,351.733 64.408,351.917 64.323 C 352.922 63.858,356.163 63.948,357.114 64.468 C 357.314 64.577,357.627 64.667,357.808 64.667 C 357.990 64.667,358.164 64.727,358.194 64.800 C 358.250 64.933,360.313 66.139,360.885 66.373 C 361.579 66.657,362.234 66.120,362.573 64.988 C 362.748 64.404,362.990 63.736,363.111 63.505 C 363.232 63.273,363.332 62.957,363.332 62.802 C 363.333 62.646,363.403 62.476,363.489 62.424 C 363.574 62.371,363.732 61.906,363.839 61.391 L 364.033 60.455 363.475 59.970 C 363.168 59.703,362.710 59.442,362.458 59.388 C 362.206 59.335,362.000 59.240,362.000 59.178 C 362.000 59.115,361.681 58.930,361.292 58.766 C 360.902 58.602,360.344 58.362,360.051 58.231 C 359.759 58.100,359.459 58.007,359.385 58.023 C 359.311 58.038,358.957 57.922,358.600 57.763 C 358.242 57.604,357.799 57.514,357.616 57.562 C 357.432 57.610,357.087 57.548,356.849 57.425 C 356.289 57.135,352.229 57.084,351.760 57.361 M189.667 64.123 C 190.705 64.333,192.318 65.146,192.917 65.762 C 193.668 66.535,194.427 67.401,194.473 67.539 C 194.625 67.989,195.038 68.968,195.186 69.230 C 195.448 69.694,195.432 74.068,195.167 74.333 C 195.121 74.379,194.870 74.843,194.610 75.364 C 194.194 76.198,192.403 78.153,192.040 78.170 C 191.808 78.181,191.000 78.581,191.000 78.686 C 191.000 78.743,190.628 78.840,190.174 78.900 C 189.719 78.960,189.302 79.082,189.247 79.171 C 189.120 79.377,186.885 79.385,186.759 79.181 C 186.707 79.097,186.378 78.981,186.028 78.921 C 184.780 78.710,183.007 77.265,182.375 75.943 C 181.783 74.703,181.803 68.471,182.403 67.227 C 182.816 66.372,184.498 64.667,184.930 64.667 C 185.060 64.667,185.167 64.587,185.167 64.490 C 185.167 64.393,185.236 64.357,185.322 64.410 C 185.407 64.462,185.524 64.429,185.582 64.336 C 185.639 64.243,185.926 64.166,186.218 64.164 C 186.511 64.163,186.862 64.085,187.000 63.992 C 187.264 63.814,188.415 63.870,189.667 64.123 M225.417 64.160 C 225.875 64.231,226.550 64.420,226.917 64.581 C 227.283 64.741,227.621 64.881,227.667 64.890 C 228.289 65.022,230.147 67.157,230.756 68.441 C 231.434 69.869,231.641 72.827,231.148 74.019 C 230.568 75.419,229.802 76.676,229.169 77.270 C 228.789 77.626,228.357 78.029,228.209 78.167 C 228.062 78.304,227.898 78.410,227.845 78.403 C 227.732 78.386,226.381 78.942,225.939 79.188 C 225.555 79.401,222.738 79.426,222.456 79.219 C 222.343 79.136,221.800 78.889,221.250 78.669 C 219.422 77.939,217.435 75.511,217.090 73.583 C 217.024 73.217,216.895 72.825,216.803 72.714 C 216.310 72.118,217.099 68.983,218.199 67.165 C 218.486 66.692,219.837 65.333,220.022 65.333 C 220.102 65.333,220.167 65.254,220.167 65.157 C 220.167 65.060,220.242 65.027,220.333 65.083 C 220.425 65.140,220.500 65.107,220.500 65.010 C 220.500 64.913,220.612 64.833,220.750 64.833 C 220.887 64.833,221.000 64.754,221.000 64.657 C 221.000 64.560,221.062 64.518,221.137 64.565 C 221.212 64.612,221.483 64.541,221.739 64.408 C 221.995 64.275,222.440 64.159,222.727 64.150 C 223.015 64.141,223.438 64.074,223.667 64.000 C 223.896 63.927,224.196 63.904,224.333 63.949 C 224.471 63.994,224.958 64.089,225.417 64.160 M323.857 64.599 C 324.190 64.809,324.509 64.935,324.565 64.879 C 324.621 64.824,324.667 64.856,324.667 64.952 C 324.667 65.135,324.070 65.414,323.290 65.596 C 323.037 65.655,322.789 65.770,322.739 65.852 C 322.688 65.933,322.494 66.000,322.308 66.000 C 322.121 66.000,321.769 66.106,321.526 66.235 C 321.282 66.365,320.633 66.602,320.083 66.762 C 319.533 66.922,318.971 67.111,318.833 67.181 C 318.599 67.301,318.020 67.529,317.833 67.575 C 317.787 67.586,317.317 67.735,316.788 67.905 C 315.341 68.371,315.393 67.873,316.973 66.145 C 318.780 64.167,322.016 63.441,323.857 64.599 M53.413 106.873 C 53.371 106.989,53.316 110.140,53.293 113.875 L 53.250 120.667 60.000 120.667 L 66.750 120.667 66.667 113.708 L 66.583 106.750 60.037 106.706 C 54.888 106.672,53.474 106.708,53.413 106.873 " stroke="none" fill="#049c5c" fill-rule="evenodd" />
    </g>
</svg>
