<?xml version="1.0" encoding="UTF-8"?>
<svg xmlns="http://www.w3.org/2000/svg" xmlns:xlink="http://www.w3.org/1999/xlink" id="svg" version="1.1" width="400" height="133.33333333333334" viewBox="0, 0, 400,133.33333333333334">
    <g id="svgg">
        <path id="path0" d="M42.706 19.125 L 42.750 25.917 49.374 25.960 L 55.998 26.004 56.041 39.294 L 56.083 52.583 62.706 52.627 L 69.330 52.670 69.373 59.294 L 69.417 65.917 76.000 66.000 L 82.583 66.083 82.583 79.333 L 82.583 92.583 62.623 92.626 L 42.663 92.668 42.706 86.042 L 42.750 79.417 49.333 79.333 L 55.917 79.250 55.917 72.667 L 55.917 66.083 35.792 66.041 L 15.667 65.999 15.667 72.664 L 15.667 79.330 22.458 79.373 L 29.250 79.417 29.294 86.042 L 29.337 92.667 22.502 92.667 L 15.667 92.667 15.667 106.167 L 15.667 119.667 22.500 119.667 L 29.333 119.667 29.333 106.167 L 29.333 92.667 36.000 92.667 L 42.667 92.667 42.667 106.167 L 42.667 119.667 49.331 119.667 L 55.996 119.667 56.040 112.875 L 56.083 106.083 62.667 106.083 L 69.250 106.083 69.294 112.875 L 69.337 119.667 76.000 119.667 L 82.663 119.667 82.706 112.875 L 82.750 106.083 89.375 106.040 L 96.000 105.996 96.000 112.831 L 96.000 119.667 102.667 119.667 L 109.333 119.667 109.333 112.833 L 109.333 106.000 116.167 106.000 L 123.000 106.000 123.000 92.665 L 123.000 79.330 116.208 79.373 L 109.417 79.417 109.374 92.708 L 109.331 106.000 102.666 106.000 L 96.001 106.000 95.959 79.375 L 95.917 52.750 82.626 52.707 L 69.335 52.665 69.293 39.374 L 69.250 26.083 62.625 26.040 L 56.000 25.996 56.000 19.165 L 56.000 12.333 49.331 12.333 L 42.663 12.333 42.706 19.125 M15.667 39.332 L 15.667 52.669 29.125 52.626 L 42.583 52.583 42.583 46.000 L 42.583 39.417 36.000 39.333 L 29.417 39.250 29.333 32.667 L 29.250 26.083 22.458 26.040 L 15.667 25.996 15.667 39.332 M109.409 26.209 C 109.365 26.324,109.349 29.305,109.373 32.834 L 109.417 39.250 116.208 39.294 L 123.000 39.337 123.000 32.669 L 123.000 26.000 116.245 26.000 C 110.986 26.000,109.472 26.046,109.409 26.209 " stroke="none" fill="#cccccc" fill-rule="evenodd" />
        <path id="path1" d="M15.667 19.165 L 15.667 25.996 22.458 26.040 L 29.250 26.083 29.333 32.667 L 29.417 39.250 36.000 39.333 L 42.583 39.417 42.583 46.000 L 42.583 52.583 29.125 52.626 L 15.667 52.669 15.667 59.334 L 15.667 65.999 35.792 66.041 L 55.917 66.083 55.917 72.667 L 55.917 79.250 49.333 79.333 L 42.750 79.417 42.706 86.042 L 42.663 92.667 36.000 92.667 L 29.337 92.667 29.294 86.042 L 29.250 79.417 22.458 79.373 L 15.667 79.330 15.667 85.998 L 15.667 92.667 22.500 92.667 L 29.333 92.667 29.333 106.167 L 29.333 119.667 36.000 119.667 L 42.667 119.667 42.667 106.167 L 42.667 92.668 62.625 92.626 L 82.583 92.583 82.583 79.333 L 82.583 66.083 76.000 66.000 L 69.417 65.917 69.373 59.291 L 69.330 52.665 82.623 52.707 L 95.917 52.750 95.959 79.373 L 96.001 105.996 89.376 106.040 L 82.750 106.083 82.706 112.875 L 82.663 119.667 89.331 119.667 L 96.000 119.667 96.000 112.833 L 96.000 106.000 102.667 106.000 L 109.333 106.000 109.333 112.833 L 109.333 119.667 116.167 119.667 L 123.000 119.667 123.000 112.833 L 123.000 106.000 116.166 106.000 L 109.331 106.000 109.374 92.708 L 109.417 79.417 116.208 79.373 L 123.000 79.330 123.000 59.333 L 123.000 39.337 116.208 39.294 L 109.417 39.250 109.417 32.667 L 109.417 26.083 116.208 26.040 L 123.000 25.996 123.000 19.165 L 123.000 12.333 89.500 12.333 L 56.000 12.333 56.000 19.169 L 56.000 26.004 49.375 25.960 L 42.750 25.917 42.706 19.125 L 42.663 12.333 29.165 12.333 L 15.667 12.333 15.667 19.165 M69.293 39.377 L 69.335 52.670 62.709 52.627 L 56.083 52.583 56.041 39.290 L 55.998 25.996 62.624 26.040 L 69.250 26.083 69.293 39.377 M270.409 42.543 C 270.363 42.663,270.346 44.146,270.371 45.839 L 270.417 48.917 272.851 48.963 C 275.923 49.021,275.686 49.318,275.629 45.478 L 275.583 42.417 273.038 42.371 C 271.062 42.335,270.474 42.373,270.409 42.543 M151.048 44.667 C 150.974 44.952,150.821 45.000,149.981 45.000 C 149.222 45.000,148.924 45.076,148.667 45.333 C 148.483 45.517,148.183 45.667,148.000 45.667 C 147.817 45.667,147.517 45.817,147.333 46.000 C 147.150 46.183,146.880 46.333,146.734 46.333 C 146.588 46.333,146.430 46.483,146.382 46.667 C 146.333 46.851,146.154 47.000,145.981 47.000 C 145.778 47.000,145.667 47.118,145.667 47.333 C 145.667 47.556,145.556 47.667,145.333 47.667 C 145.125 47.667,145.000 47.778,145.000 47.963 C 145.000 48.126,144.850 48.388,144.667 48.545 C 144.483 48.702,144.333 49.000,144.333 49.208 C 144.333 49.416,144.183 49.680,144.000 49.795 C 143.688 49.989,143.667 50.183,143.667 52.767 C 143.667 55.391,143.684 55.536,144.000 55.618 C 144.261 55.687,144.333 55.846,144.333 56.353 C 144.333 56.889,144.391 57.000,144.667 57.000 C 144.889 57.000,145.000 57.111,145.000 57.333 C 145.000 57.556,145.111 57.667,145.333 57.667 C 145.556 57.667,145.667 57.778,145.667 58.000 C 145.667 58.222,145.778 58.333,146.000 58.333 C 146.222 58.333,146.333 58.444,146.333 58.667 C 146.333 58.944,146.444 59.000,147.000 59.000 C 147.556 59.000,147.667 59.056,147.667 59.333 C 147.667 59.609,147.778 59.667,148.314 59.667 C 148.821 59.667,148.980 59.739,149.048 60.000 C 149.126 60.296,149.276 60.333,150.401 60.333 C 151.556 60.333,151.667 60.363,151.667 60.667 C 151.667 60.977,151.778 61.000,153.296 61.000 C 154.720 61.000,154.962 61.042,155.211 61.333 C 155.441 61.602,155.703 61.667,156.562 61.667 C 157.488 61.667,157.639 61.711,157.715 62.000 C 157.782 62.255,157.942 62.333,158.401 62.333 C 158.889 62.333,159.000 62.395,159.000 62.667 C 159.000 62.889,159.111 63.000,159.333 63.000 C 159.527 63.000,159.667 63.111,159.667 63.266 C 159.667 63.412,159.817 63.570,160.000 63.618 C 160.244 63.682,160.334 63.846,160.334 64.228 C 160.335 64.515,160.473 64.975,160.641 65.250 C 160.815 65.535,160.895 65.858,160.827 66.000 C 160.578 66.520,160.333 67.457,160.333 67.887 C 160.333 68.184,160.245 68.333,160.068 68.333 C 159.922 68.333,159.763 68.483,159.715 68.667 C 159.667 68.850,159.517 69.000,159.382 69.000 C 159.246 69.000,159.096 69.150,159.048 69.333 C 159.000 69.518,158.821 69.667,158.647 69.667 C 158.444 69.667,158.333 69.785,158.333 70.000 C 158.333 70.267,158.222 70.333,157.776 70.333 C 157.430 70.333,157.104 70.460,156.917 70.667 C 156.637 70.976,156.403 71.000,153.667 71.000 C 150.930 71.000,150.697 70.976,150.417 70.667 C 150.234 70.464,149.903 70.333,149.577 70.333 C 149.179 70.333,149.016 70.246,148.952 70.000 C 148.904 69.817,148.745 69.667,148.599 69.667 C 148.254 69.667,147.000 68.413,147.000 68.068 C 147.000 67.922,146.850 67.763,146.667 67.715 C 146.379 67.640,146.333 67.488,146.333 66.594 C 146.333 65.075,145.666 64.333,144.297 64.333 C 143.575 64.333,143.301 64.405,143.134 64.636 C 143.015 64.802,142.785 64.988,142.625 65.047 C 142.140 65.228,142.180 73.667,142.667 73.667 C 142.889 73.667,143.000 73.778,143.000 74.000 C 143.000 74.306,143.111 74.333,144.333 74.333 C 145.556 74.333,145.667 74.306,145.667 74.000 C 145.667 73.806,145.778 73.667,145.932 73.667 C 146.078 73.667,146.237 73.517,146.285 73.333 C 146.333 73.149,146.512 73.000,146.686 73.000 C 146.889 73.000,147.000 73.118,147.000 73.333 C 147.000 73.611,147.111 73.667,147.667 73.667 C 148.222 73.667,148.333 73.722,148.333 74.000 C 148.333 74.296,148.444 74.333,149.314 74.333 C 150.154 74.333,150.307 74.381,150.382 74.667 C 150.465 74.985,150.609 75.000,153.667 75.000 C 156.724 75.000,156.868 74.985,156.952 74.667 C 157.024 74.388,157.180 74.333,157.894 74.331 C 158.985 74.328,159.500 74.189,159.500 73.897 C 159.500 73.745,159.698 73.667,160.082 73.667 C 160.483 73.667,160.728 73.563,160.872 73.333 C 160.987 73.150,161.212 73.000,161.373 73.000 C 161.556 73.000,161.667 72.874,161.667 72.667 C 161.667 72.444,161.778 72.333,162.000 72.333 C 162.222 72.333,162.333 72.222,162.333 72.000 C 162.333 71.778,162.444 71.667,162.667 71.667 C 162.889 71.667,163.000 71.556,163.000 71.333 C 163.000 71.111,163.111 71.000,163.333 71.000 C 163.549 71.000,163.667 70.889,163.667 70.686 C 163.667 70.512,163.816 70.333,164.000 70.285 C 164.283 70.211,164.333 70.058,164.333 69.266 C 164.333 68.444,164.373 68.333,164.667 68.333 C 164.984 68.333,165.000 68.222,165.000 66.068 C 165.000 63.942,164.979 63.797,164.667 63.715 C 164.391 63.643,164.333 63.488,164.333 62.815 C 164.333 62.183,164.259 61.957,164.000 61.795 C 163.817 61.680,163.667 61.455,163.667 61.293 C 163.667 61.111,163.540 61.000,163.333 61.000 C 163.111 61.000,163.000 60.889,163.000 60.667 C 163.000 60.444,162.889 60.333,162.667 60.333 C 162.444 60.333,162.333 60.222,162.333 60.000 C 162.333 59.792,162.222 59.667,162.037 59.667 C 161.874 59.667,161.612 59.517,161.455 59.333 C 161.287 59.137,160.964 59.000,160.668 59.000 C 160.352 59.000,160.167 58.915,160.167 58.769 C 160.167 58.478,159.651 58.339,158.561 58.336 C 157.847 58.334,157.691 58.278,157.618 58.000 C 157.539 57.697,157.391 57.667,155.972 57.667 C 154.594 57.667,154.389 57.628,154.205 57.333 C 154.023 57.041,153.817 57.000,152.518 57.000 C 151.179 57.000,151.031 56.968,150.952 56.667 C 150.885 56.411,150.724 56.333,150.266 56.333 C 149.839 56.333,149.667 56.260,149.667 56.078 C 149.667 55.938,149.535 55.775,149.375 55.716 C 149.000 55.579,148.421 55.000,148.284 54.625 C 148.225 54.465,148.062 54.333,147.922 54.333 C 147.713 54.333,147.667 54.078,147.667 52.917 C 147.667 51.788,147.716 51.500,147.909 51.500 C 148.054 51.500,148.195 51.266,148.261 50.917 C 148.340 50.495,148.457 50.333,148.685 50.333 C 148.889 50.333,149.000 50.216,149.000 50.000 C 149.000 49.778,149.111 49.667,149.333 49.667 C 149.556 49.667,149.667 49.556,149.667 49.333 C 149.667 49.056,149.778 49.000,150.333 49.000 C 150.889 49.000,151.000 48.944,151.000 48.667 C 151.000 48.347,151.111 48.333,153.647 48.333 C 156.154 48.333,156.299 48.351,156.382 48.667 C 156.448 48.922,156.609 49.000,157.068 49.000 C 157.494 49.000,157.667 49.073,157.667 49.255 C 157.667 49.396,157.787 49.557,157.933 49.613 C 158.277 49.745,158.922 50.390,159.054 50.733 C 159.110 50.880,159.271 51.000,159.411 51.000 C 159.588 51.000,159.667 51.167,159.668 51.542 C 159.669 52.238,159.972 53.333,160.163 53.333 C 160.245 53.333,160.335 53.540,160.364 53.792 L 160.417 54.250 162.000 54.250 L 163.583 54.250 163.628 49.958 C 163.671 45.751,163.666 45.667,163.336 45.667 C 163.111 45.667,163.000 45.556,163.000 45.333 C 163.000 45.042,162.890 45.000,162.125 45.002 C 160.896 45.005,160.618 45.115,160.333 45.711 C 160.034 46.336,159.667 46.503,159.667 46.014 C 159.667 45.739,159.562 45.667,159.168 45.667 C 158.850 45.667,158.594 45.546,158.461 45.333 C 158.293 45.064,158.073 45.000,157.313 45.000 C 156.512 45.000,156.359 44.950,156.285 44.667 C 156.203 44.352,156.058 44.333,153.667 44.333 C 151.276 44.333,151.131 44.352,151.048 44.667 M235.333 45.333 C 235.022 45.644,235.000 45.889,235.000 49.000 L 235.000 52.333 232.742 52.333 C 230.568 52.333,230.470 52.348,230.076 52.742 C 229.523 53.295,229.471 54.813,230.000 54.952 C 230.184 55.000,230.333 55.179,230.333 55.353 C 230.333 55.645,230.493 55.667,232.667 55.667 L 235.000 55.667 235.000 63.266 C 235.000 70.724,235.006 70.866,235.333 70.952 C 235.567 71.013,235.667 71.179,235.667 71.510 C 235.667 71.774,235.800 72.077,235.969 72.199 C 236.136 72.319,236.321 72.548,236.381 72.708 C 236.441 72.869,236.588 73.000,236.708 73.000 C 236.828 73.000,237.054 73.150,237.211 73.333 C 237.368 73.517,237.676 73.667,237.896 73.667 C 238.154 73.667,238.325 73.784,238.382 74.000 C 238.455 74.282,238.609 74.333,239.382 74.333 C 240.154 74.333,240.308 74.385,240.382 74.667 C 240.517 75.184,246.805 75.184,247.128 74.667 C 247.310 74.375,247.517 74.333,248.767 74.333 C 250.058 74.333,250.206 74.301,250.285 74.000 C 250.357 73.724,250.512 73.667,251.185 73.667 C 251.817 73.667,252.043 73.593,252.205 73.333 C 252.346 73.108,252.594 73.000,252.972 73.000 C 253.382 73.000,253.553 72.915,253.614 72.682 C 253.660 72.507,253.841 72.327,254.015 72.281 C 254.495 72.156,254.499 69.667,254.019 69.667 C 253.846 69.667,253.667 69.518,253.618 69.333 C 253.483 68.816,251.167 68.893,251.167 69.415 C 251.167 69.530,250.867 69.672,250.500 69.731 C 250.099 69.795,249.833 69.928,249.833 70.065 C 249.833 70.225,249.534 70.315,248.840 70.365 C 248.226 70.410,247.727 70.545,247.535 70.719 C 247.099 71.113,240.833 71.149,240.833 70.758 C 240.833 70.612,240.599 70.471,240.250 70.406 C 239.828 70.326,239.667 70.209,239.667 69.981 C 239.667 69.778,239.549 69.667,239.333 69.667 C 239.005 69.667,239.000 69.556,239.000 62.669 L 239.000 55.671 244.958 55.627 L 250.917 55.583 250.917 54.000 L 250.917 52.417 244.958 52.373 L 239.000 52.329 239.000 49.066 C 239.000 45.942,238.986 45.798,238.667 45.715 C 238.482 45.667,238.333 45.488,238.333 45.314 C 238.333 44.831,235.820 44.847,235.333 45.333 M180.461 52.000 C 180.320 52.226,180.073 52.333,179.694 52.333 C 179.276 52.333,179.114 52.417,179.048 52.667 C 179.000 52.850,178.838 53.000,178.687 53.000 C 178.537 53.000,178.320 53.150,178.205 53.333 C 178.091 53.517,177.852 53.667,177.675 53.667 C 177.498 53.667,177.292 53.760,177.218 53.875 C 177.136 54.002,177.051 53.759,177.000 53.250 L 176.917 52.417 173.000 52.417 L 169.083 52.417 169.028 52.833 C 168.997 53.063,168.903 53.321,168.819 53.408 C 168.735 53.495,168.667 53.762,168.667 54.000 C 168.667 54.238,168.735 54.505,168.819 54.592 C 168.903 54.679,168.997 54.938,169.028 55.167 C 169.083 55.581,169.093 55.584,171.042 55.630 C 172.820 55.673,173.301 55.795,172.833 56.083 C 172.725 56.150,172.667 60.280,172.667 67.927 L 172.667 79.667 171.167 79.667 C 169.778 79.667,169.667 79.691,169.667 80.000 C 169.667 80.222,169.556 80.333,169.333 80.333 C 169.074 80.333,169.000 80.444,169.000 80.833 C 169.000 81.108,168.925 81.333,168.833 81.333 C 168.742 81.333,168.667 81.483,168.667 81.667 C 168.667 81.850,168.742 82.000,168.833 82.000 C 168.925 82.000,169.000 82.225,169.000 82.500 C 169.000 82.900,169.071 83.000,169.357 83.000 C 169.553 83.000,169.809 83.131,169.926 83.292 C 170.328 83.841,181.340 83.803,181.893 83.250 C 182.014 83.129,182.294 83.005,182.515 82.973 C 183.076 82.894,183.249 80.333,182.693 80.333 C 182.512 80.333,182.334 80.188,182.285 80.000 C 182.203 79.685,182.058 79.667,179.599 79.667 L 177.000 79.667 177.000 75.599 L 177.000 71.531 177.360 71.625 C 177.557 71.677,177.857 71.857,178.026 72.026 C 178.195 72.195,178.475 72.333,178.647 72.333 C 178.821 72.333,179.000 72.482,179.048 72.667 C 179.122 72.950,179.276 73.000,180.068 73.000 C 180.889 73.000,181.000 73.040,181.000 73.333 C 181.000 73.657,181.111 73.667,184.932 73.667 C 188.724 73.667,188.868 73.655,188.952 73.333 C 189.020 73.072,189.179 73.000,189.686 73.000 C 190.222 73.000,190.333 72.943,190.333 72.667 C 190.333 72.389,190.444 72.333,191.000 72.333 C 191.556 72.333,191.667 72.278,191.667 72.000 C 191.667 71.778,191.778 71.667,192.000 71.667 C 192.222 71.667,192.333 71.556,192.333 71.333 C 192.333 71.079,192.444 71.000,192.800 71.000 C 193.392 71.000,193.667 70.726,193.667 70.133 C 193.667 69.778,193.746 69.667,194.000 69.667 C 194.222 69.667,194.333 69.556,194.333 69.333 C 194.333 69.111,194.444 69.000,194.667 69.000 C 194.882 69.000,195.000 68.889,195.000 68.686 C 195.000 68.512,195.149 68.333,195.333 68.285 C 195.617 68.211,195.667 68.058,195.667 67.266 C 195.667 66.444,195.706 66.333,196.000 66.333 C 196.323 66.333,196.333 66.222,196.333 62.703 C 196.333 59.265,196.316 59.061,196.000 58.833 C 195.754 58.656,195.667 58.402,195.667 57.864 C 195.667 57.276,195.603 57.119,195.333 57.048 C 195.149 57.000,195.000 56.821,195.000 56.647 C 195.000 56.444,194.882 56.333,194.667 56.333 C 194.444 56.333,194.333 56.222,194.333 56.000 C 194.333 55.817,194.196 55.530,194.029 55.362 C 193.862 55.195,193.676 54.931,193.617 54.776 C 193.557 54.622,193.335 54.429,193.122 54.348 C 192.910 54.267,192.636 54.081,192.514 53.934 C 192.392 53.787,192.152 53.667,191.980 53.667 C 191.778 53.667,191.667 53.548,191.667 53.333 C 191.667 53.095,191.556 53.000,191.276 53.000 C 191.061 53.000,190.749 52.850,190.583 52.667 C 190.384 52.447,190.070 52.333,189.660 52.333 C 189.179 52.333,189.019 52.258,188.952 52.000 C 188.868 51.678,188.724 51.667,184.767 51.667 C 180.850 51.667,180.660 51.681,180.461 52.000 M209.715 52.000 C 209.641 52.282,209.488 52.333,208.715 52.333 C 207.942 52.333,207.789 52.385,207.715 52.667 C 207.654 52.901,207.488 53.000,207.157 53.000 C 206.893 53.000,206.590 53.133,206.468 53.303 C 206.348 53.469,206.119 53.654,205.958 53.714 C 205.798 53.774,205.667 53.938,205.667 54.078 C 205.667 54.222,205.522 54.333,205.333 54.333 C 205.111 54.333,205.000 54.444,205.000 54.667 C 205.000 54.889,204.889 55.000,204.667 55.000 C 204.444 55.000,204.333 55.111,204.333 55.333 C 204.333 55.556,204.222 55.667,204.000 55.667 C 203.785 55.667,203.667 55.778,203.667 55.981 C 203.667 56.154,203.518 56.333,203.333 56.382 C 203.145 56.431,203.000 56.609,203.000 56.792 C 203.000 56.970,202.850 57.251,202.667 57.417 C 202.483 57.583,202.333 57.857,202.333 58.026 C 202.333 58.195,202.183 58.483,202.000 58.667 C 201.756 58.911,201.667 59.222,201.667 59.833 C 201.667 60.292,201.604 60.667,201.527 60.667 C 200.916 60.667,200.746 64.912,201.333 65.500 C 201.575 65.742,201.667 66.056,201.667 66.641 C 201.667 67.237,201.754 67.527,202.000 67.750 C 202.183 67.916,202.333 68.235,202.333 68.458 C 202.333 68.724,202.448 68.895,202.667 68.952 C 202.901 69.013,203.000 69.179,203.000 69.510 C 203.000 69.774,203.133 70.077,203.303 70.199 C 203.469 70.319,203.654 70.548,203.714 70.708 C 203.774 70.869,203.938 71.000,204.078 71.000 C 204.218 71.000,204.333 71.120,204.333 71.266 C 204.333 71.412,204.476 71.569,204.651 71.614 C 204.826 71.660,205.007 71.841,205.052 72.015 C 205.098 72.190,205.255 72.333,205.401 72.333 C 205.547 72.333,205.817 72.483,206.000 72.667 C 206.183 72.850,206.483 73.000,206.667 73.000 C 206.889 73.000,207.000 73.111,207.000 73.333 C 207.000 73.611,207.111 73.667,207.667 73.667 C 208.222 73.667,208.333 73.722,208.333 74.000 C 208.333 74.296,208.444 74.333,209.314 74.333 C 210.154 74.333,210.307 74.381,210.382 74.667 C 210.465 74.985,210.609 75.000,213.566 75.000 C 216.483 75.000,216.676 74.981,216.872 74.667 C 217.038 74.401,217.261 74.333,217.972 74.333 C 218.724 74.333,218.878 74.281,218.952 74.000 C 219.018 73.747,219.179 73.667,219.618 73.667 C 220.058 73.667,220.219 73.586,220.285 73.333 C 220.333 73.149,220.512 73.000,220.686 73.000 C 220.889 73.000,221.000 72.882,221.000 72.667 C 221.000 72.409,221.111 72.333,221.491 72.333 C 221.773 72.333,222.073 72.205,222.199 72.031 C 222.319 71.864,222.548 71.679,222.708 71.619 C 222.869 71.559,223.000 71.404,223.000 71.275 C 223.000 71.145,223.150 71.000,223.333 70.952 C 223.589 70.885,223.667 70.724,223.667 70.266 C 223.667 69.778,223.729 69.667,224.000 69.667 C 224.215 69.667,224.333 69.556,224.333 69.353 C 224.333 69.179,224.482 69.000,224.667 68.952 C 224.939 68.881,225.000 68.724,225.000 68.100 C 225.000 67.517,225.079 67.287,225.333 67.128 C 225.650 66.930,225.667 66.739,225.667 63.208 C 225.667 59.703,225.648 59.481,225.333 59.211 C 225.122 59.031,225.000 58.720,225.000 58.364 C 225.000 57.952,224.916 57.780,224.682 57.719 C 224.480 57.666,224.326 57.430,224.258 57.068 C 224.195 56.731,224.053 56.500,223.909 56.500 C 223.774 56.500,223.667 56.345,223.667 56.151 C 223.667 55.942,223.533 55.767,223.333 55.715 C 223.149 55.667,223.000 55.488,223.000 55.314 C 223.000 55.111,222.882 55.000,222.667 55.000 C 222.473 55.000,222.333 54.889,222.333 54.734 C 222.333 54.588,222.190 54.431,222.015 54.386 C 221.841 54.340,221.660 54.159,221.614 53.985 C 221.569 53.810,221.412 53.667,221.266 53.667 C 221.120 53.667,220.850 53.517,220.667 53.333 C 220.483 53.150,220.201 53.000,220.040 53.000 C 219.879 53.000,219.653 52.850,219.539 52.667 C 219.377 52.407,219.150 52.333,218.518 52.333 C 217.846 52.333,217.691 52.276,217.618 52.000 C 217.534 51.679,217.391 51.667,213.667 51.667 C 209.942 51.667,209.799 51.679,209.715 52.000 M308.382 52.000 C 308.309 52.276,308.154 52.333,307.482 52.333 C 306.850 52.333,306.623 52.407,306.461 52.667 C 306.347 52.850,306.138 53.000,305.997 53.000 C 305.856 53.000,305.632 53.150,305.500 53.333 C 305.368 53.517,305.082 53.667,304.864 53.667 C 304.609 53.667,304.438 53.785,304.382 54.000 C 304.333 54.184,304.154 54.333,303.981 54.333 C 303.778 54.333,303.667 54.451,303.667 54.667 C 303.667 54.889,303.556 55.000,303.333 55.000 C 303.150 55.000,302.850 55.150,302.667 55.333 C 302.177 55.823,302.167 55.799,302.167 54.173 C 302.167 52.227,302.438 52.333,297.461 52.333 C 292.742 52.333,293.000 52.237,293.000 54.000 C 293.000 55.683,292.975 55.667,295.533 55.667 L 297.667 55.667 297.667 63.000 L 297.667 70.333 295.792 70.336 C 293.710 70.338,293.167 70.428,293.167 70.769 C 293.167 70.896,293.020 71.000,292.841 71.000 C 291.877 71.000,291.097 73.382,291.985 73.614 C 292.159 73.660,292.340 73.841,292.386 74.015 C 292.516 74.513,311.484 74.513,311.614 74.015 C 311.660 73.841,311.841 73.660,312.015 73.614 C 312.497 73.488,312.483 71.841,312.000 71.715 C 311.816 71.667,311.667 71.488,311.667 71.314 C 311.667 71.090,311.547 71.000,311.250 71.000 C 311.006 71.000,310.833 70.904,310.833 70.769 C 310.833 70.390,310.266 70.338,306.130 70.336 L 302.177 70.333 302.130 65.667 C 302.104 63.100,302.140 61.000,302.208 61.000 C 302.277 61.000,302.333 60.850,302.333 60.667 C 302.333 60.460,302.444 60.333,302.627 60.333 C 302.788 60.333,303.013 60.183,303.128 60.000 C 303.242 59.817,303.481 59.667,303.659 59.667 C 303.836 59.667,304.079 59.530,304.199 59.364 C 304.319 59.198,304.548 59.012,304.708 58.953 C 304.869 58.893,305.000 58.729,305.000 58.589 C 305.000 58.444,305.145 58.333,305.333 58.333 C 305.556 58.333,305.667 58.222,305.667 58.000 C 305.667 57.778,305.778 57.667,306.000 57.667 C 306.222 57.667,306.333 57.556,306.333 57.333 C 306.333 57.062,306.444 57.000,306.932 57.000 C 307.391 57.000,307.552 56.922,307.618 56.667 C 307.667 56.482,307.846 56.333,308.019 56.333 C 308.192 56.333,308.483 56.183,308.667 56.000 C 308.944 55.722,309.222 55.667,310.333 55.667 C 311.556 55.667,311.667 55.694,311.667 56.000 C 311.667 56.215,311.778 56.333,311.981 56.333 C 312.154 56.333,312.333 56.482,312.382 56.667 C 312.430 56.850,312.580 57.000,312.715 57.000 C 312.850 57.000,313.000 57.150,313.048 57.333 C 313.126 57.630,313.276 57.667,314.401 57.667 C 315.556 57.667,315.667 57.637,315.667 57.333 C 315.667 57.111,315.778 57.000,316.000 57.000 C 316.306 57.000,316.333 56.889,316.333 55.667 C 316.333 54.444,316.306 54.333,316.000 54.333 C 315.778 54.333,315.667 54.222,315.667 54.000 C 315.667 53.778,315.556 53.667,315.333 53.667 C 315.145 53.667,315.000 53.556,315.000 53.411 C 315.000 53.271,314.869 53.107,314.708 53.047 C 314.548 52.988,314.319 52.802,314.199 52.636 C 314.073 52.461,313.773 52.333,313.491 52.333 C 313.221 52.333,312.850 52.183,312.667 52.000 C 312.372 51.705,312.111 51.667,310.401 51.667 C 308.609 51.667,308.462 51.691,308.382 52.000 M328.872 52.000 C 328.713 52.255,328.483 52.333,327.900 52.333 C 327.276 52.333,327.119 52.394,327.048 52.667 C 326.982 52.919,326.821 53.000,326.382 53.000 C 325.942 53.000,325.781 53.081,325.715 53.333 C 325.667 53.518,325.488 53.667,325.314 53.667 C 325.111 53.667,325.000 53.785,325.000 54.000 C 325.000 54.183,324.891 54.333,324.758 54.333 C 324.444 54.333,323.667 55.110,323.667 55.424 C 323.667 55.558,323.517 55.667,323.333 55.667 C 323.111 55.667,323.000 55.778,323.000 56.000 C 323.000 56.222,322.889 56.333,322.667 56.333 C 322.422 56.333,322.333 56.444,322.333 56.750 C 322.333 56.994,322.238 57.167,322.103 57.167 C 321.840 57.167,321.672 57.667,321.669 58.458 C 321.667 58.888,321.598 59.000,321.333 59.000 C 321.029 59.000,321.000 59.111,321.000 60.296 C 321.000 61.386,320.947 61.638,320.667 61.878 C 320.425 62.085,320.333 62.370,320.333 62.915 C 320.333 63.444,320.432 63.765,320.667 64.000 C 320.941 64.275,321.000 64.556,321.000 65.599 C 321.000 66.724,321.037 66.874,321.333 66.952 C 321.594 67.020,321.667 67.179,321.667 67.686 C 321.667 68.222,321.724 68.333,322.000 68.333 C 322.271 68.333,322.333 68.444,322.333 68.932 C 322.333 69.391,322.411 69.552,322.667 69.618 C 322.851 69.667,323.000 69.846,323.000 70.019 C 323.000 70.222,323.118 70.333,323.333 70.333 C 323.556 70.333,323.667 70.444,323.667 70.667 C 323.667 70.889,323.778 71.000,324.000 71.000 C 324.222 71.000,324.333 71.111,324.333 71.333 C 324.333 71.556,324.444 71.667,324.667 71.667 C 324.889 71.667,325.000 71.778,325.000 72.000 C 325.000 72.222,325.111 72.333,325.333 72.333 C 325.556 72.333,325.667 72.444,325.667 72.667 C 325.667 72.944,325.778 73.000,326.333 73.000 C 326.889 73.000,327.000 73.056,327.000 73.333 C 327.000 73.611,327.111 73.667,327.667 73.667 C 328.222 73.667,328.333 73.722,328.333 74.000 C 328.333 74.296,328.444 74.333,329.314 74.333 C 330.154 74.333,330.307 74.381,330.382 74.667 C 330.465 74.986,330.609 75.000,333.709 75.000 C 336.737 75.000,336.968 74.978,337.250 74.667 C 337.499 74.391,337.763 74.333,338.774 74.333 C 339.817 74.333,340.028 74.284,340.205 74.000 C 340.354 73.763,340.594 73.667,341.040 73.667 C 341.556 73.667,341.667 73.608,341.667 73.333 C 341.667 73.056,341.778 73.000,342.333 73.000 C 342.889 73.000,343.000 72.944,343.000 72.667 C 343.000 72.395,343.111 72.333,343.599 72.333 C 344.048 72.333,344.219 72.254,344.281 72.015 C 344.327 71.841,344.507 71.660,344.682 71.614 C 344.883 71.562,345.000 71.385,345.000 71.132 C 345.000 70.913,345.090 70.643,345.200 70.533 C 345.356 70.378,345.356 70.289,345.200 70.133 C 345.090 70.023,345.000 69.736,345.000 69.496 C 345.000 68.427,342.838 67.829,342.000 68.667 C 341.817 68.850,341.547 69.000,341.401 69.000 C 341.255 69.000,341.096 69.150,341.048 69.333 C 340.984 69.579,340.821 69.667,340.429 69.667 C 340.136 69.667,339.748 69.805,339.566 69.974 C 339.384 70.144,338.879 70.322,338.444 70.371 C 338.009 70.420,337.519 70.582,337.355 70.730 C 336.856 71.182,330.956 71.127,330.462 70.667 C 330.259 70.478,329.873 70.333,329.571 70.333 C 329.179 70.333,329.016 70.246,328.952 70.000 C 328.904 69.817,328.745 69.667,328.599 69.667 C 328.453 69.667,328.183 69.517,328.000 69.333 C 327.817 69.150,327.517 69.000,327.333 69.000 C 327.125 69.000,327.000 68.889,327.000 68.703 C 327.000 68.540,326.850 68.299,326.667 68.167 C 326.483 68.035,326.333 67.748,326.333 67.531 C 326.333 67.276,326.215 67.105,326.000 67.048 C 325.747 66.982,325.667 66.821,325.667 66.382 C 325.667 65.942,325.586 65.781,325.333 65.715 C 325.072 65.647,325.000 65.488,325.000 64.981 L 325.000 64.333 335.133 64.333 C 342.793 64.333,345.315 64.285,345.467 64.133 C 345.904 63.696,345.619 60.667,345.140 60.667 C 345.063 60.667,344.999 60.348,344.998 59.958 C 344.995 59.009,344.843 58.500,344.564 58.500 C 344.419 58.500,344.333 58.314,344.333 57.998 C 344.333 57.703,344.196 57.379,344.000 57.211 C 343.817 57.054,343.667 56.793,343.667 56.630 C 343.667 56.444,343.542 56.333,343.333 56.333 C 343.150 56.333,343.000 56.228,343.000 56.099 C 343.000 55.777,341.574 54.333,341.256 54.333 C 341.111 54.333,341.000 54.189,341.000 54.000 C 341.000 53.785,340.889 53.667,340.686 53.667 C 340.512 53.667,340.333 53.518,340.285 53.333 C 340.219 53.081,340.058 53.000,339.618 53.000 C 339.179 53.000,339.018 52.919,338.952 52.667 C 338.885 52.411,338.724 52.333,338.266 52.333 C 337.889 52.333,337.543 52.210,337.333 52.000 C 337.019 51.685,336.778 51.667,333.040 51.667 C 329.261 51.667,329.071 51.682,328.872 52.000 M359.715 52.000 C 359.647 52.261,359.488 52.333,358.981 52.333 C 358.556 52.333,358.219 52.448,358.000 52.667 C 357.817 52.850,357.517 53.000,357.333 53.000 C 357.118 53.000,357.000 53.111,357.000 53.315 C 357.000 53.543,356.839 53.660,356.417 53.739 C 356.067 53.805,355.833 53.946,355.833 54.091 C 355.833 54.226,355.679 54.333,355.484 54.333 C 355.276 54.333,355.100 54.467,355.048 54.667 C 355.000 54.850,354.855 55.000,354.725 55.000 C 354.596 55.000,354.442 55.131,354.385 55.292 C 354.327 55.452,354.142 55.718,353.973 55.881 C 353.805 56.045,353.667 56.364,353.667 56.590 C 353.667 56.889,353.576 57.000,353.333 57.000 C 353.056 57.000,353.000 57.111,353.000 57.667 C 353.000 58.222,352.944 58.333,352.667 58.333 C 352.371 58.333,352.333 58.444,352.333 59.314 C 352.333 60.154,352.286 60.307,352.000 60.382 C 351.683 60.465,351.667 60.609,351.667 63.333 C 351.667 66.058,351.683 66.202,352.000 66.285 C 352.286 66.360,352.333 66.512,352.333 67.353 C 352.333 68.222,352.371 68.333,352.667 68.333 C 352.944 68.333,353.000 68.444,353.000 69.000 C 353.000 69.556,353.056 69.667,353.333 69.667 C 353.591 69.667,353.667 69.778,353.667 70.157 C 353.667 70.440,353.795 70.740,353.969 70.866 C 354.136 70.985,354.321 71.215,354.381 71.375 C 354.441 71.535,354.596 71.667,354.725 71.667 C 354.855 71.667,355.000 71.817,355.048 72.000 C 355.115 72.255,355.276 72.333,355.734 72.333 C 356.222 72.333,356.333 72.395,356.333 72.667 C 356.333 72.889,356.444 73.000,356.667 73.000 C 356.889 73.000,357.000 73.111,357.000 73.333 C 357.000 73.609,357.111 73.667,357.647 73.667 C 358.154 73.667,358.313 73.739,358.382 74.000 C 358.455 74.281,358.609 74.333,359.361 74.333 C 360.073 74.333,360.295 74.401,360.461 74.667 C 360.659 74.982,360.850 75.000,364.100 75.000 C 367.391 75.000,367.535 74.986,367.618 74.667 C 367.695 74.374,367.846 74.333,368.851 74.333 C 369.817 74.333,370.030 74.281,370.205 74.000 C 370.354 73.763,370.594 73.667,371.040 73.667 C 371.556 73.667,371.667 73.608,371.667 73.333 C 371.667 73.062,371.778 73.000,372.266 73.000 C 372.724 73.000,372.885 72.922,372.952 72.667 C 373.008 72.453,373.179 72.333,373.430 72.333 C 373.645 72.333,373.955 72.195,374.119 72.027 C 374.282 71.858,374.548 71.673,374.708 71.615 C 374.869 71.558,375.000 71.404,375.000 71.275 C 375.000 71.145,375.150 71.000,375.333 70.952 C 375.517 70.904,375.667 70.745,375.667 70.599 C 375.667 70.453,375.817 70.183,376.000 70.000 C 376.488 69.512,376.417 68.333,375.899 68.333 C 375.771 68.333,375.667 68.183,375.667 68.000 C 375.667 67.776,375.556 67.667,375.328 67.667 C 375.142 67.667,374.947 67.557,374.896 67.423 C 374.711 66.940,373.333 67.031,373.333 67.527 C 373.333 67.604,373.139 67.667,372.901 67.667 C 372.616 67.667,372.440 67.775,372.386 67.985 C 372.340 68.159,372.159 68.340,371.985 68.386 C 371.810 68.431,371.667 68.588,371.667 68.734 C 371.667 68.880,371.533 69.000,371.370 69.000 C 371.207 69.000,370.965 69.150,370.833 69.333 C 370.701 69.517,370.403 69.667,370.170 69.667 C 369.927 69.667,369.658 69.809,369.539 70.000 C 369.424 70.183,369.162 70.334,368.957 70.336 C 368.322 70.339,367.833 70.528,367.833 70.769 C 367.833 71.195,361.158 71.098,360.789 70.667 C 360.632 70.483,360.332 70.333,360.122 70.333 C 359.912 70.333,359.612 70.183,359.455 70.000 C 359.298 69.817,358.982 69.667,358.752 69.667 C 358.444 69.667,358.333 69.578,358.333 69.333 C 358.333 69.111,358.222 69.000,358.000 69.000 C 357.778 69.000,357.667 68.889,357.667 68.667 C 357.667 68.444,357.556 68.333,357.333 68.333 C 357.062 68.333,357.000 68.222,357.000 67.734 C 357.000 67.276,356.922 67.115,356.667 67.048 C 356.397 66.978,356.333 66.821,356.333 66.229 C 356.333 65.703,356.239 65.416,356.000 65.211 C 355.710 64.963,355.667 64.720,355.667 63.333 C 355.667 61.947,355.710 61.704,356.000 61.455 C 356.237 61.253,356.333 60.964,356.333 60.458 C 356.333 59.927,356.418 59.694,356.667 59.539 C 356.879 59.406,357.000 59.150,357.000 58.832 C 357.000 58.444,357.074 58.333,357.333 58.333 C 357.556 58.333,357.667 58.222,357.667 58.000 C 357.667 57.778,357.778 57.667,358.000 57.667 C 358.222 57.667,358.333 57.556,358.333 57.333 C 358.333 57.111,358.444 57.000,358.667 57.000 C 358.889 57.000,359.000 56.889,359.000 56.667 C 359.000 56.389,359.111 56.333,359.667 56.333 C 360.222 56.333,360.333 56.278,360.333 56.000 C 360.333 55.704,360.444 55.667,361.333 55.667 C 362.222 55.667,362.333 55.630,362.333 55.333 C 362.333 55.022,362.444 55.000,363.981 55.000 C 365.488 55.000,365.635 55.028,365.715 55.333 C 365.789 55.615,365.942 55.667,366.715 55.667 C 367.488 55.667,367.641 55.718,367.715 56.000 C 367.781 56.253,367.942 56.333,368.382 56.333 C 368.821 56.333,368.982 56.414,369.048 56.667 C 369.096 56.850,369.246 57.000,369.382 57.000 C 369.517 57.000,369.667 57.150,369.715 57.333 C 369.763 57.517,369.922 57.667,370.068 57.667 C 370.222 57.667,370.333 57.806,370.333 58.000 C 370.333 58.222,370.444 58.333,370.667 58.333 C 370.960 58.333,371.000 58.444,371.000 59.266 C 371.000 60.058,371.050 60.211,371.333 60.285 C 371.518 60.333,371.667 60.512,371.667 60.686 C 371.667 61.165,374.156 61.162,374.281 60.682 C 374.327 60.507,374.507 60.327,374.682 60.281 C 375.189 60.149,375.174 53.181,374.667 53.048 C 374.482 53.000,374.333 52.821,374.333 52.647 C 374.333 52.164,371.820 52.180,371.333 52.667 C 371.150 52.850,370.859 53.000,370.686 53.000 C 370.512 53.000,370.333 52.851,370.285 52.667 C 370.211 52.385,370.058 52.333,369.285 52.333 C 368.512 52.333,368.359 52.282,368.285 52.000 C 368.201 51.678,368.058 51.667,364.000 51.667 C 359.942 51.667,359.799 51.678,359.715 52.000 M264.536 52.531 C 264.223 52.844,264.270 55.079,264.595 55.405 C 264.816 55.626,265.389 55.667,268.262 55.667 L 271.667 55.667 271.667 63.042 L 271.667 70.417 268.125 70.363 C 264.722 70.312,263.333 70.447,263.333 70.829 C 263.333 70.911,263.127 71.002,262.875 71.031 C 262.249 71.103,262.039 73.667,262.660 73.667 C 262.889 73.667,263.000 73.775,263.000 74.000 C 263.000 74.512,284.147 74.528,284.281 74.015 C 284.327 73.841,284.507 73.660,284.682 73.614 C 285.163 73.488,285.150 71.841,284.667 71.715 C 284.482 71.667,284.333 71.488,284.333 71.314 C 284.333 71.090,284.214 71.000,283.917 71.000 C 283.673 71.000,283.500 70.904,283.500 70.769 C 283.500 70.395,282.936 70.338,279.210 70.336 L 275.670 70.333 275.626 61.375 L 275.583 52.417 270.161 52.373 C 266.082 52.340,264.688 52.379,264.536 52.531 M185.878 55.333 C 186.099 55.592,186.370 55.667,187.080 55.667 C 187.817 55.667,188.038 55.732,188.205 56.000 C 188.320 56.183,188.537 56.333,188.687 56.333 C 188.838 56.333,189.000 56.483,189.048 56.667 C 189.115 56.922,189.276 57.000,189.734 57.000 C 190.195 57.000,190.333 57.068,190.333 57.293 C 190.333 57.455,190.483 57.680,190.667 57.795 C 190.850 57.909,191.000 58.148,191.000 58.325 C 191.000 58.503,191.140 58.746,191.311 58.866 C 191.482 58.985,191.675 59.327,191.741 59.625 C 191.807 59.926,191.965 60.167,192.097 60.167 C 192.291 60.167,192.333 60.618,192.333 62.667 C 192.333 64.716,192.291 65.167,192.097 65.167 C 191.965 65.167,191.807 65.407,191.741 65.708 C 191.675 66.006,191.482 66.348,191.311 66.468 C 191.140 66.588,191.000 66.815,191.000 66.973 C 191.000 67.131,190.850 67.368,190.667 67.500 C 190.483 67.632,190.333 67.874,190.333 68.037 C 190.333 68.242,190.205 68.333,189.915 68.333 C 189.685 68.333,189.368 68.483,189.211 68.667 C 189.054 68.850,188.804 69.000,188.655 69.000 C 188.507 69.000,188.259 69.139,188.105 69.310 C 187.910 69.525,187.488 69.651,186.722 69.722 C 186.100 69.780,185.496 69.936,185.338 70.079 C 184.975 70.408,184.519 70.402,184.146 70.065 C 183.964 69.900,183.417 69.762,182.733 69.707 C 181.959 69.644,181.523 69.523,181.309 69.309 C 181.139 69.139,180.859 69.000,180.686 69.000 C 180.512 69.000,180.333 68.851,180.285 68.667 C 180.226 68.440,180.058 68.333,179.760 68.333 C 179.436 68.333,179.232 68.181,178.978 67.750 C 178.789 67.429,178.566 67.167,178.484 67.167 C 178.401 67.167,178.333 67.010,178.333 66.818 C 178.333 66.609,178.199 66.434,178.000 66.382 C 177.747 66.316,177.667 66.154,177.667 65.715 C 177.667 65.276,177.586 65.114,177.333 65.048 C 177.020 64.966,177.000 64.821,177.000 62.667 C 177.000 60.512,177.020 60.367,177.333 60.285 C 177.586 60.219,177.667 60.058,177.667 59.618 C 177.667 59.179,177.747 59.018,178.000 58.952 C 178.183 58.904,178.333 58.745,178.333 58.599 C 178.333 58.453,178.448 58.333,178.589 58.333 C 178.729 58.333,178.892 58.202,178.950 58.042 C 179.087 57.667,179.667 57.087,180.042 56.950 C 180.202 56.892,180.333 56.729,180.333 56.589 C 180.333 56.427,180.487 56.333,180.752 56.333 C 180.982 56.333,181.298 56.183,181.455 56.000 C 181.658 55.763,181.947 55.667,182.455 55.667 C 182.964 55.667,183.252 55.570,183.455 55.333 C 183.677 55.074,183.947 55.000,184.667 55.000 C 185.386 55.000,185.656 55.074,185.878 55.333 M215.000 55.333 C 215.000 55.630,215.111 55.667,216.000 55.667 C 216.889 55.667,217.000 55.704,217.000 56.000 C 217.000 56.278,217.111 56.333,217.667 56.333 C 218.222 56.333,218.333 56.389,218.333 56.667 C 218.333 56.889,218.444 57.000,218.667 57.000 C 218.861 57.000,219.000 57.111,219.000 57.266 C 219.000 57.412,219.143 57.569,219.318 57.614 C 219.493 57.660,219.673 57.841,219.719 58.015 C 219.765 58.190,219.922 58.333,220.068 58.333 C 220.222 58.333,220.333 58.473,220.333 58.667 C 220.333 58.850,220.473 59.140,220.644 59.311 C 220.815 59.481,221.006 59.894,221.068 60.227 C 221.137 60.594,221.277 60.833,221.424 60.833 C 221.856 60.833,221.772 65.503,221.333 65.878 C 221.150 66.035,221.000 66.334,221.000 66.542 C 221.000 66.750,220.850 67.013,220.667 67.128 C 220.454 67.261,220.333 67.517,220.333 67.835 C 220.333 68.222,220.259 68.333,220.000 68.333 C 219.778 68.333,219.667 68.444,219.667 68.667 C 219.667 68.889,219.556 69.000,219.333 69.000 C 219.111 69.000,219.000 69.111,219.000 69.333 C 219.000 69.576,218.889 69.667,218.590 69.667 C 218.364 69.667,218.045 69.808,217.881 69.981 C 217.718 70.153,217.340 70.347,217.042 70.410 C 216.739 70.475,216.500 70.631,216.500 70.763 C 216.500 71.191,211.101 71.101,210.667 70.667 C 210.483 70.483,210.125 70.333,209.870 70.333 C 209.598 70.333,209.308 70.196,209.167 70.000 C 209.035 69.817,208.793 69.667,208.630 69.667 C 208.444 69.667,208.333 69.542,208.333 69.333 C 208.333 69.111,208.222 69.000,208.000 69.000 C 207.778 69.000,207.667 68.889,207.667 68.667 C 207.667 68.444,207.556 68.333,207.333 68.333 C 207.111 68.333,207.000 68.222,207.000 68.000 C 207.000 67.778,206.889 67.667,206.667 67.667 C 206.395 67.667,206.333 67.556,206.333 67.068 C 206.333 66.609,206.255 66.448,206.000 66.382 C 205.718 66.308,205.667 66.154,205.667 65.382 C 205.667 64.609,205.615 64.455,205.333 64.382 C 205.049 64.307,205.000 64.154,205.000 63.333 C 205.000 62.512,205.049 62.359,205.333 62.285 C 205.615 62.211,205.667 62.058,205.667 61.285 C 205.667 60.512,205.718 60.359,206.000 60.285 C 206.253 60.219,206.333 60.058,206.333 59.618 C 206.333 59.179,206.414 59.018,206.667 58.952 C 206.850 58.904,207.000 58.745,207.000 58.599 C 207.000 58.453,207.120 58.333,207.266 58.333 C 207.412 58.333,207.570 58.183,207.618 58.000 C 207.666 57.817,207.816 57.667,207.952 57.667 C 208.087 57.667,208.237 57.517,208.285 57.333 C 208.333 57.149,208.512 57.000,208.686 57.000 C 208.889 57.000,209.000 56.882,209.000 56.667 C 209.000 56.395,209.111 56.333,209.599 56.333 C 210.058 56.333,210.218 56.255,210.285 56.000 C 210.359 55.718,210.512 55.667,211.285 55.667 C 212.058 55.667,212.211 55.615,212.285 55.333 C 212.363 55.036,212.512 55.000,213.686 55.000 C 214.889 55.000,215.000 55.028,215.000 55.333 M334.382 55.333 C 334.455 55.614,334.609 55.667,335.361 55.667 C 336.073 55.667,336.295 55.734,336.461 56.000 C 336.591 56.208,336.850 56.333,337.149 56.333 C 337.488 56.333,337.653 56.431,337.715 56.667 C 337.782 56.922,337.942 57.000,338.401 57.000 C 338.889 57.000,339.000 57.062,339.000 57.333 C 339.000 57.556,339.111 57.667,339.333 57.667 C 339.592 57.667,339.667 57.778,339.667 58.165 C 339.667 58.483,339.787 58.739,340.000 58.872 C 340.183 58.987,340.333 59.212,340.333 59.373 C 340.333 59.556,340.460 59.667,340.667 59.667 C 340.944 59.667,341.000 59.778,341.000 60.333 L 341.000 61.000 333.000 61.000 L 325.000 61.000 325.000 60.583 C 325.000 60.334,325.095 60.167,325.237 60.167 C 325.368 60.167,325.526 59.926,325.592 59.625 C 325.658 59.327,325.851 58.985,326.022 58.866 C 326.193 58.746,326.333 58.515,326.333 58.352 C 326.333 58.007,327.518 57.000,327.922 57.000 C 328.074 57.000,328.237 56.850,328.285 56.667 C 328.347 56.431,328.512 56.333,328.851 56.333 C 329.150 56.333,329.409 56.208,329.539 56.000 C 329.705 55.734,329.927 55.667,330.639 55.667 C 331.391 55.667,331.545 55.614,331.618 55.333 C 331.696 55.036,331.846 55.000,333.000 55.000 C 334.154 55.000,334.304 55.036,334.382 55.333 M56.113 106.109 C 56.051 106.171,56.000 109.247,56.000 112.944 L 56.000 119.667 62.669 119.667 L 69.337 119.667 69.294 112.875 L 69.250 106.083 62.738 106.040 C 59.156 106.016,56.175 106.047,56.113 106.109 " stroke="none" fill="#24a46c" fill-rule="evenodd" />
    </g>
</svg>
