<svg id="svg" version="1.1" xmlns="http://www.w3.org/2000/svg" xmlns:xlink="http://www.w3.org/1999/xlink" width="400" height="133.33333333333334" viewBox="0, 0, 400,133.33333333333334"><g id="svgg"><path id="path0" d="M42.333 19.208 L 42.417 26.083 48.917 26.083 L 55.417 26.083 55.460 19.208 L 55.504 12.333 48.877 12.333 L 42.250 12.333 42.333 19.208 M15.000 39.543 L 15.000 52.835 28.542 52.793 L 42.083 52.750 42.083 46.250 L 42.083 39.750 35.681 39.706 C 31.329 39.677,29.209 39.604,29.058 39.479 C 28.883 39.334,28.828 37.961,28.794 32.856 L 28.750 26.417 21.875 26.333 L 15.000 26.250 15.000 39.543 M115.873 26.292 L 108.996 26.337 109.040 32.877 L 109.083 39.417 115.958 39.460 L 122.833 39.504 122.833 32.835 C 122.833 29.167,122.815 26.185,122.792 26.206 C 122.769 26.228,119.655 26.267,115.873 26.292 M55.707 39.540 L 55.750 52.750 62.250 52.750 L 68.750 52.750 68.750 39.583 L 68.750 26.417 62.207 26.373 L 55.665 26.329 55.707 39.540 M69.040 59.541 L 69.083 66.083 75.485 66.127 C 79.872 66.157,81.958 66.229,82.110 66.356 C 82.475 66.658,82.437 92.373,82.071 92.738 C 81.836 92.973,79.793 93.000,62.073 93.000 L 42.337 93.000 42.294 106.583 L 42.250 120.167 48.873 120.167 L 55.496 120.167 55.540 113.208 L 55.583 106.250 62.064 106.206 C 66.767 106.175,68.608 106.215,68.776 106.355 C 68.968 106.514,68.999 107.709,68.962 113.357 L 68.917 120.167 75.540 120.167 L 82.163 120.167 82.207 113.208 L 82.250 106.250 88.833 106.167 L 95.417 106.083 95.417 79.583 L 95.417 53.083 82.206 53.041 L 68.996 52.998 69.040 59.541 M15.000 72.875 L 15.000 79.500 21.800 79.500 C 26.867 79.500,28.651 79.551,28.800 79.700 C 28.949 79.849,29.000 81.560,29.000 86.369 L 29.000 92.837 35.542 92.794 L 42.083 92.750 42.167 86.167 L 42.250 79.583 48.833 79.500 L 55.417 79.417 55.417 72.917 L 55.417 66.417 35.208 66.333 L 15.000 66.250 15.000 72.875 M115.875 79.625 L 109.000 79.670 109.000 92.919 L 109.000 106.167 115.917 106.167 L 122.833 106.167 122.833 92.833 C 122.833 85.500,122.815 79.518,122.792 79.540 C 122.769 79.562,119.656 79.600,115.875 79.625 M14.960 106.250 C 14.936 113.583,14.974 119.711,15.044 119.868 C 15.161 120.129,15.727 120.153,22.002 120.163 L 28.833 120.173 28.833 106.590 L 28.833 93.007 21.919 92.962 L 15.004 92.917 14.960 106.250 M95.629 113.250 L 95.583 120.167 102.208 120.167 L 108.833 120.167 108.833 113.250 L 108.833 106.333 102.254 106.333 L 95.674 106.333 95.629 113.250 " stroke="none" fill="#cccccc" fill-rule="evenodd"></path><path id="path1" d="M15.095 12.429 C 14.858 12.666,14.837 17.729,14.874 66.054 C 14.896 95.403,14.934 113.454,14.958 106.167 L 15.002 92.917 21.918 92.962 L 28.833 93.007 28.833 106.585 L 28.833 120.163 22.292 120.209 C 18.694 120.234,39.729 120.254,69.036 120.252 C 119.966 120.250,122.335 120.237,122.619 119.952 C 123.106 119.465,123.080 12.759,122.593 12.403 C 122.075 12.024,15.474 12.049,15.095 12.429 M55.460 19.208 L 55.417 26.083 48.917 26.083 L 42.417 26.083 42.333 19.208 L 42.250 12.333 48.877 12.333 L 55.504 12.333 55.460 19.208 M28.794 32.856 C 28.828 37.961,28.883 39.334,29.058 39.479 C 29.209 39.604,31.329 39.677,35.681 39.706 L 42.083 39.750 42.083 46.250 L 42.083 52.750 28.542 52.793 L 15.000 52.835 15.000 39.543 L 15.000 26.250 21.875 26.333 L 28.750 26.417 28.794 32.856 M122.833 32.835 L 122.833 39.504 115.958 39.460 L 109.083 39.417 109.040 32.877 L 108.996 26.337 115.873 26.292 C 119.655 26.267,122.769 26.228,122.792 26.206 C 122.815 26.185,122.833 29.167,122.833 32.835 M68.750 39.583 L 68.750 52.750 62.250 52.750 L 55.750 52.750 55.707 39.540 L 55.665 26.329 62.207 26.373 L 68.750 26.417 68.750 39.583 M270.407 42.236 C 270.112 42.452,270.079 42.728,270.031 45.400 L 269.979 48.327 270.398 48.747 C 270.982 49.330,274.438 49.395,275.000 48.833 C 275.455 48.379,275.516 42.707,275.071 42.262 C 274.710 41.901,270.895 41.880,270.407 42.236 M150.606 44.418 C 150.343 44.555,149.951 44.667,149.734 44.667 C 146.474 44.667,142.592 49.546,142.873 53.291 C 143.157 57.074,146.869 60.667,150.493 60.667 C 150.827 60.667,151.180 60.747,151.278 60.845 C 151.376 60.943,151.897 61.096,152.436 61.186 C 154.719 61.565,155.141 61.641,156.267 61.874 C 161.118 62.877,161.652 67.804,157.167 70.175 C 155.615 70.995,150.497 70.923,149.133 70.062 C 148.789 69.845,148.442 69.667,148.364 69.667 C 147.725 69.667,146.000 67.152,146.000 66.220 C 146.000 64.033,143.001 63.371,141.998 65.338 C 141.107 67.083,141.613 73.476,142.702 74.239 C 143.292 74.653,145.313 74.481,145.339 74.015 C 145.369 73.479,146.021 73.142,146.459 73.436 C 147.027 73.817,149.050 74.663,149.833 74.847 C 151.560 75.254,152.030 75.319,153.250 75.316 C 153.983 75.315,154.958 75.240,155.417 75.149 C 155.875 75.059,156.475 74.946,156.750 74.897 C 159.344 74.441,163.089 71.803,163.863 69.887 C 164.004 69.536,164.220 68.987,164.344 68.667 C 164.692 67.760,164.748 64.249,164.427 63.467 C 164.284 63.118,164.046 62.541,163.899 62.183 C 163.293 60.714,161.045 58.926,159.021 58.305 C 156.738 57.604,154.873 57.167,154.169 57.167 C 153.602 57.167,151.245 56.702,150.750 56.493 C 149.291 55.875,148.851 55.622,148.394 55.138 C 145.605 52.181,148.428 48.566,153.500 48.598 L 155.750 48.612 156.833 49.235 C 158.547 50.221,159.333 51.211,159.333 52.381 C 159.333 54.625,162.374 55.499,163.420 53.555 C 163.909 52.646,163.920 46.698,163.434 45.894 C 162.687 44.660,160.487 44.493,159.855 45.622 C 159.707 45.887,159.604 45.866,158.607 45.370 C 158.009 45.072,157.272 44.786,156.968 44.733 C 156.665 44.680,156.134 44.531,155.788 44.402 C 154.897 44.068,151.255 44.079,150.606 44.418 M235.550 44.928 C 234.586 45.420,234.513 45.684,234.462 48.863 L 234.417 51.750 232.500 51.833 C 230.210 51.933,229.816 52.122,229.492 53.280 C 228.964 55.164,229.923 56.036,232.667 56.167 L 234.417 56.250 234.500 63.083 C 234.588 70.316,234.591 70.339,235.427 71.677 C 236.241 72.980,238.447 74.510,240.000 74.850 C 240.321 74.920,240.883 75.056,241.250 75.152 C 242.084 75.369,244.670 75.372,245.667 75.157 C 246.079 75.067,246.792 74.927,247.250 74.843 C 248.561 74.606,249.569 74.328,249.742 74.157 C 249.829 74.071,250.071 74.000,250.280 74.000 C 252.737 74.000,255.139 71.237,254.008 69.711 C 253.117 68.510,252.421 68.497,249.812 69.628 C 247.795 70.504,246.550 70.719,243.500 70.717 C 240.910 70.717,240.523 70.626,239.586 69.801 L 238.833 69.138 238.833 62.653 L 238.833 56.167 244.007 56.167 C 250.546 56.167,250.833 56.072,250.833 53.917 C 250.833 51.851,250.778 51.833,244.175 51.833 L 238.833 51.833 238.833 49.245 C 238.833 45.313,237.704 43.828,235.550 44.928 M180.633 51.655 C 179.538 52.005,178.380 52.642,177.396 53.435 L 176.708 53.988 176.626 53.133 C 176.503 51.853,176.446 51.833,172.843 51.834 C 169.355 51.835,168.970 51.941,168.445 53.047 C 167.669 54.683,168.903 56.167,171.039 56.167 L 172.167 56.167 172.167 67.732 L 172.167 79.298 170.875 79.358 C 168.443 79.471,167.338 81.364,168.833 82.858 L 169.308 83.333 175.498 83.333 C 182.078 83.333,182.157 83.324,182.582 82.503 C 183.632 80.472,182.332 79.333,178.961 79.333 L 176.667 79.333 176.667 75.320 L 176.667 71.307 177.330 71.875 C 182.142 75.994,192.115 74.008,194.869 68.382 C 195.026 68.061,195.227 67.712,195.315 67.606 C 196.240 66.490,196.631 61.090,195.935 59.036 C 194.777 55.622,191.558 52.575,188.149 51.669 C 186.434 51.213,182.042 51.205,180.633 51.655 M209.636 51.670 C 208.448 51.994,206.190 53.121,205.500 53.733 C 205.271 53.936,204.804 54.306,204.464 54.556 C 203.372 55.354,201.173 58.962,201.164 59.971 C 201.163 60.124,201.054 60.550,200.921 60.917 C 200.433 62.273,200.641 65.242,201.343 66.917 C 201.419 67.100,201.648 67.662,201.851 68.167 C 202.054 68.671,202.492 69.421,202.826 69.833 C 203.160 70.246,203.605 70.830,203.816 71.132 C 204.180 71.653,206.638 73.606,207.167 73.794 C 207.304 73.842,207.717 74.010,208.083 74.165 C 214.480 76.875,221.292 74.567,224.492 68.605 C 225.494 66.738,225.566 66.363,225.549 63.083 C 225.533 59.825,225.521 59.772,224.376 57.559 C 221.861 52.700,215.369 50.106,209.636 51.670 M328.933 51.685 C 324.976 52.739,321.153 56.707,320.624 60.309 C 320.191 63.259,320.562 66.304,321.582 68.167 C 321.757 68.487,322.035 69.014,322.199 69.336 C 322.510 69.950,324.601 72.133,325.353 72.629 C 325.592 72.787,326.080 73.110,326.436 73.347 C 326.792 73.584,327.346 73.874,327.667 73.992 C 327.987 74.110,328.550 74.318,328.917 74.453 C 331.031 75.237,333.927 75.539,335.750 75.167 C 336.300 75.054,337.087 74.902,337.500 74.828 C 338.571 74.637,339.369 74.415,339.785 74.193 C 339.983 74.087,340.293 74.000,340.475 74.000 C 341.042 74.000,343.780 72.486,344.447 71.803 C 346.500 69.700,344.115 66.915,341.689 68.583 C 341.223 68.904,340.808 69.167,340.768 69.167 C 340.727 69.167,340.332 69.329,339.889 69.528 C 337.614 70.551,336.812 70.705,333.750 70.714 C 330.522 70.723,329.116 70.279,327.282 68.671 C 326.392 67.891,325.000 65.496,325.000 64.744 C 325.000 64.702,329.446 64.667,334.880 64.667 C 346.610 64.667,345.557 64.872,345.451 62.608 C 345.380 61.105,345.155 59.803,344.864 59.217 C 344.783 59.052,344.583 58.617,344.422 58.250 C 343.221 55.525,341.589 53.886,338.552 52.353 C 336.445 51.289,331.666 50.957,328.933 51.685 M360.152 51.656 C 356.019 52.760,353.167 55.689,351.686 60.354 C 351.063 62.314,351.372 66.098,352.313 68.042 C 352.508 68.444,352.667 68.854,352.667 68.955 C 352.667 69.289,354.619 71.777,355.189 72.168 C 355.498 72.380,355.938 72.718,356.167 72.920 C 356.803 73.479,358.307 74.218,359.667 74.640 C 359.988 74.739,360.512 74.905,360.833 75.009 C 361.706 75.291,364.931 75.393,366.083 75.175 C 368.365 74.744,369.647 74.401,369.908 74.151 C 369.995 74.068,370.222 74.000,370.412 74.000 C 370.602 74.000,371.334 73.662,372.038 73.250 C 372.743 72.837,373.369 72.500,373.429 72.500 C 374.152 72.500,376.167 69.990,376.167 69.089 C 376.167 66.714,373.988 66.381,371.651 68.399 C 369.396 70.346,364.886 71.299,361.291 70.587 C 356.392 69.618,354.177 63.055,357.227 58.548 C 357.633 57.949,359.296 56.500,359.578 56.500 C 359.629 56.500,359.988 56.363,360.377 56.195 C 362.429 55.310,364.354 55.085,365.744 55.566 C 366.114 55.694,366.754 55.895,367.167 56.013 C 369.105 56.565,370.265 57.586,370.719 59.139 C 371.323 61.202,372.912 61.863,374.273 60.616 L 374.917 60.026 374.971 56.954 C 375.035 53.358,374.907 52.642,374.117 52.160 C 373.257 51.636,372.144 51.717,371.415 52.357 L 370.819 52.881 369.923 52.427 C 367.730 51.318,362.860 50.934,360.152 51.656 M308.315 51.739 C 307.216 51.980,305.103 53.149,303.308 54.508 L 302.032 55.474 301.974 53.972 C 301.889 51.761,302.041 51.833,297.465 51.833 L 293.800 51.833 293.233 52.400 C 292.717 52.917,292.667 53.054,292.667 53.951 C 292.667 55.614,293.472 56.167,295.895 56.167 L 297.500 56.167 297.500 63.250 L 297.500 70.333 295.542 70.337 C 292.391 70.344,291.536 70.725,291.392 72.189 C 291.304 73.072,291.563 73.611,292.319 74.120 L 292.883 74.500 301.816 74.499 C 312.254 74.498,312.141 74.520,312.161 72.466 C 312.179 70.561,311.819 70.428,306.458 70.361 L 302.000 70.305 302.000 65.671 L 302.000 61.038 303.125 60.120 C 303.744 59.615,304.522 58.951,304.856 58.643 C 306.490 57.133,308.874 55.833,310.010 55.833 C 310.638 55.833,312.230 56.484,312.359 56.793 C 312.555 57.261,313.666 57.833,314.378 57.833 C 316.686 57.833,317.060 55.061,314.984 53.333 C 312.896 51.595,311.018 51.147,308.315 51.739 M264.520 52.520 C 263.734 53.305,263.603 54.137,264.125 55.032 C 264.692 56.003,265.320 56.167,268.493 56.167 L 271.333 56.167 271.333 63.250 L 271.333 70.333 267.708 70.341 C 262.343 70.351,262.000 70.475,262.000 72.398 C 262.000 74.611,261.472 74.516,273.558 74.462 L 283.694 74.417 284.180 73.872 C 284.824 73.151,284.880 71.766,284.292 71.084 C 283.743 70.448,282.983 70.342,278.958 70.337 L 275.333 70.333 275.333 61.345 C 275.333 53.396,275.303 52.327,275.071 52.095 C 274.845 51.869,274.151 51.833,270.008 51.833 L 265.206 51.833 264.520 52.520 M95.417 79.583 L 95.417 106.083 88.833 106.167 L 82.250 106.250 82.207 113.208 L 82.163 120.167 75.540 120.167 L 68.917 120.167 68.962 113.357 C 68.999 107.709,68.968 106.514,68.776 106.355 C 68.608 106.215,66.767 106.175,62.064 106.206 L 55.583 106.250 55.540 113.208 L 55.496 120.167 48.873 120.167 L 42.250 120.167 42.294 106.583 L 42.337 93.000 62.073 93.000 C 79.793 93.000,81.836 92.973,82.071 92.738 C 82.437 92.373,82.475 66.658,82.110 66.356 C 81.958 66.229,79.872 66.157,75.485 66.127 L 69.083 66.083 69.040 59.541 L 68.996 52.998 82.206 53.041 L 95.417 53.083 95.417 79.583 M185.572 55.481 C 185.622 55.562,185.942 55.681,186.283 55.745 C 189.873 56.419,192.931 60.781,191.999 63.902 C 191.490 65.607,191.044 66.403,189.994 67.479 C 188.728 68.777,187.663 69.319,185.833 69.598 C 185.421 69.661,184.950 69.781,184.786 69.865 C 184.603 69.959,184.284 69.953,183.953 69.850 C 183.658 69.758,182.854 69.557,182.167 69.404 C 179.881 68.893,177.986 67.294,177.246 65.250 C 177.081 64.792,176.882 64.345,176.806 64.258 C 176.619 64.046,176.627 61.211,176.814 61.095 C 176.896 61.045,177.011 60.745,177.070 60.429 C 177.419 58.567,180.000 56.258,182.290 55.759 C 182.587 55.694,182.872 55.572,182.925 55.487 C 183.046 55.290,185.450 55.285,185.572 55.481 M215.167 55.660 C 215.487 55.782,216.124 56.024,216.582 56.198 C 218.959 57.103,220.351 58.717,221.308 61.678 C 222.362 64.941,219.319 69.802,215.750 70.558 C 209.022 71.983,204.147 67.467,205.433 61.000 C 205.846 58.921,208.706 56.287,211.123 55.759 C 211.420 55.694,211.709 55.566,211.765 55.475 C 211.906 55.247,214.441 55.385,215.167 55.660 M334.606 55.582 C 334.869 55.719,335.225 55.832,335.399 55.832 C 336.615 55.836,339.359 57.870,340.215 59.401 C 340.981 60.772,341.594 60.667,332.841 60.667 L 325.016 60.667 325.300 59.898 C 325.953 58.130,328.490 56.213,330.790 55.750 C 331.087 55.690,331.372 55.572,331.425 55.487 C 331.584 55.230,334.073 55.304,334.606 55.582 M55.417 72.917 L 55.417 79.417 48.833 79.500 L 42.250 79.583 42.167 86.167 L 42.083 92.750 35.542 92.794 L 29.000 92.837 29.000 86.369 C 29.000 81.560,28.949 79.849,28.800 79.700 C 28.651 79.551,26.867 79.500,21.800 79.500 L 15.000 79.500 15.000 72.875 L 15.000 66.250 35.208 66.333 L 55.417 66.417 55.417 72.917 M122.833 92.833 L 122.833 106.167 115.917 106.167 L 109.000 106.167 109.000 92.919 L 109.000 79.670 115.875 79.625 C 119.656 79.600,122.769 79.562,122.792 79.540 C 122.815 79.518,122.833 85.500,122.833 92.833 M108.833 113.250 L 108.833 120.167 102.208 120.167 L 95.583 120.167 95.629 113.250 L 95.674 106.333 102.254 106.333 L 108.833 106.333 108.833 113.250 " stroke="none" fill="#24a46c" fill-rule="evenodd"></path></g></svg>