<svg id="svg" version="1.1" xmlns="http://www.w3.org/2000/svg"
     xmlns:xlink="http://www.w3.org/1999/xlink" width="400" height="400" viewBox="0, 0, 400,400">
    <g id="svgg">
        <path id="path0" d="M100.097 24.900 L 100.200 49.800 125.098 49.903 L 149.997 50.006
        150.098 99.903 L 150.200 149.800 175.097 149.903 L 199.994 150.006 200.097 174.903 L
        200.200 199.800 225.000 200.000 L 249.800 200.200 249.902 250.100 L 250.003 300.000
        174.999 300.000 L 99.994 300.000 100.097 275.100 L 100.200 250.200 125.000 250.000 L
        149.800 249.800 149.800 225.000 L 149.800 200.200 74.900 200.099 L 0.000 199.998 0.000
        224.996 L 0.000 249.994 24.900 250.097 L 49.800 250.200 49.903 275.100 L 50.006 300.000
        25.003 300.000 L 0.000 300.000 0.000 350.000 L 0.000 400.000 25.000 400.000 L 50.000
        400.000 50.000 350.000 L 50.000 300.000 75.000 300.000 L 100.000 300.000 100.000 350.000
        L 100.000 400.000 124.997 400.000 L 149.994 400.000 150.097 375.100 L 150.200 350.200
        175.000 350.200 L 199.800 350.200 199.903 375.100 L 200.006 400.000 225.000 400.000 L
        249.994 400.000 250.097 375.100 L 250.200 350.200 275.100 350.097 L 300.000 349.994
        300.000 374.997 L 300.000 400.000 325.000 400.000 L 350.000 400.000 350.000 375.000
        L 350.000 350.000 375.000 350.000 L 400.000 350.000 400.000 299.997 L 400.000 249.994
        375.100 250.097 L 350.200 250.200 350.098 300.100 L 349.997 350.000 324.999 350.000 L
        300.002 350.000 299.901 250.100 L 299.800 150.200 249.902 150.098 L 200.003 149.997 199.902
        100.098 L 199.800 50.200 174.900 50.097 L 150.000 49.994 150.000 24.997 L 150.000 0.000
        124.997 0.000 L 99.994 0.000 100.097 24.900 M0.000 99.999 L 0.000 150.003 49.900 149.902 L
        99.800 149.800 99.800 125.000 L 99.800 100.200 75.000 100.000 L 50.200 99.800 50.000
        75.000 L 49.800 50.200 24.900 50.097 L 0.000 49.994 0.000 99.999 M350.184 50.500 C
        350.079 50.775,350.039 61.980,350.096 75.400 L 350.200 99.800 375.100 99.903 L 400.000
        100.006 400.000 75.003 L 400.000 50.000 375.187 50.000 C 355.706 50.000,350.334
        50.107,350.184 50.500 " stroke="none" fill="#cccccc" fill-rule="evenodd">

        </path>
        <path id="path1" d="M0.000 24.997 L 0.000 49.994 24.900 50.097 L 49.800 50.200 50.000
        75.000 L 50.200 99.800 75.000 100.000 L 99.800 100.200 99.800 125.000 L 99.800 149.800
        49.900 149.902 L 0.000 150.003 0.000 175.001 L 0.000 199.998 74.900 200.099 L 149.800
        200.200 149.800 225.000 L 149.800 249.800 125.000 250.000 L 100.200 250.200 100.097
        275.100 L 99.994 300.000 75.000 300.000 L 50.006 300.000 49.903 275.100 L 49.800 250.200
        24.900 250.097 L 0.000 249.994 0.000 274.997 L 0.000 300.000 25.000 300.000 L 50.000
        300.000 50.000 350.000 L 50.000 400.000 75.000 400.000 L 100.000 400.000 100.000 350.000
        L 100.000 300.000 175.002 300.000 L 250.003 300.000 249.902 250.100 L 249.800 200.200
        225.000 200.000 L 200.200 199.800 200.097 174.898 L 199.994 149.997 249.897 150.098 L
        299.800 150.200 299.901 250.097 L 300.002 349.994 275.101 350.097 L 250.200 350.200
        250.097 375.100 L 249.994 400.000 274.997 400.000 L 300.000 400.000 300.000 375.000 L
        300.000 350.000 325.000 350.000 L 350.000 350.000 350.000 375.000 L 350.000 400.000
        375.000 400.000 L 400.000 400.000 400.000 375.000 L 400.000 350.000 374.998 350.000 L
         349.997 350.000 350.098 300.100 L 350.200 250.200 375.100 250.097 L 400.000 249.994
         400.000 175.000 L 400.000 100.006 375.100 99.903 L 350.200 99.800 350.200 75.000 L
         350.200 50.200 375.100 50.097 L 400.000 49.994 400.000 24.997 L 400.000 0.000 275.000
         0.000 L 150.000 0.000 150.000 25.003 L 150.000 50.006 125.100 49.903 L 100.200 49.800
         100.097 24.900 L 99.994 0.000 49.997 0.000 L 0.000 0.000 0.000 24.997 M199.902 100.103
         L 200.003 150.006 175.102 149.903 L 150.200 149.800 150.098 99.897 L 149.997 49.994
         174.898 50.097 L 199.800 50.200 199.902 100.103 M150.270 350.264 C 150.121
         350.412,150.000 361.663,150.000 375.267 L 150.000 400.000 175.003 400.000 L 200.006
         400.000 199.903 375.100 L 199.800 350.200 175.170 350.097 C 161.623 350.040,150.418
         350.115,150.270 350.264 " stroke="none" fill="#24a46c" fill-rule="evenodd">

        </path>
    </g>
</svg>